<svg width="19" height="19" viewBox="0 0 19 19" fill="none" xmlns="http://www.w3.org/2000/svg">
<circle cx="9.5" cy="9.5" r="9.5" fill="white"/>
<path d="M12.4706 5.00931C10.6601 4.66356 8.78004 4.66356 6.96957 5.00931C6.16878 5.18218 5.1591 6.15027 4.98501 6.91091C4.67166 8.39761 4.67166 9.91889 4.98501 11.4056C5.19391 12.1662 6.2036 13.1343 6.96957 13.3072C7.00438 13.3072 7.0392 13.3418 7.0392 13.3763V15.5545C7.0392 15.6583 7.17847 15.7274 7.2481 15.6237L8.29261 14.5519C8.29261 14.5519 9.12821 13.6875 9.26747 13.5492C9.26747 13.5492 9.30229 13.5146 9.33711 13.5146C10.3816 13.5492 11.4609 13.4455 12.5054 13.2726C13.3062 13.0998 14.3159 12.1317 14.49 11.371C14.8033 9.88432 14.8033 8.36304 14.49 6.87633C14.2811 6.15027 13.2714 5.18218 12.4706 5.00931ZM12.5054 11.5093C12.3313 11.8551 12.1224 12.1317 11.7743 12.3045C11.6698 12.3391 11.5654 12.3737 11.4609 12.4083C11.3217 12.3737 11.2172 12.3391 11.1128 12.3045C9.99863 11.8551 8.95412 11.2327 8.11852 10.3338C7.6659 9.81517 7.28292 9.2274 6.96957 8.60506C6.8303 8.29389 6.69103 8.01729 6.58658 7.70612C6.48213 7.42953 6.65622 7.15293 6.8303 6.94548C7.00438 6.73804 7.21329 6.59974 7.457 6.49601C7.63109 6.39229 7.80517 6.46144 7.94444 6.59974C8.22297 6.94548 8.50151 7.29123 8.71041 7.67155C8.84967 7.91357 8.81486 8.19017 8.57114 8.36304C8.5015 8.39761 8.46669 8.43219 8.39705 8.50134C8.36224 8.53591 8.2926 8.57049 8.25779 8.63963C8.18815 8.74336 8.18815 8.84708 8.22297 8.95081C8.5015 9.74602 9.02376 10.3684 9.82454 10.7141C9.96381 10.7833 10.0683 10.8178 10.2423 10.8178C10.4861 10.7833 10.5905 10.5067 10.7646 10.3684C10.9387 10.2301 11.1476 10.2301 11.3565 10.3338C11.5306 10.4375 11.7046 10.5758 11.9135 10.7141C12.0876 10.8524 12.2617 10.9561 12.4358 11.0944C12.5402 11.1636 12.5751 11.3364 12.5054 11.5093ZM11.0431 8.91623C10.9735 8.91623 11.0083 8.91623 11.0431 8.91623C10.9039 8.91623 10.869 8.84708 10.8342 8.74336C10.8342 8.67421 10.8342 8.57049 10.7994 8.50134C10.7646 8.36304 10.695 8.22474 10.5557 8.12102C10.4861 8.08644 10.4164 8.05187 10.3468 8.01729C10.2423 7.98272 10.1727 7.98272 10.0683 7.98272C9.96381 7.94814 9.92899 7.879 9.92899 7.77527C9.92899 7.70612 10.0334 7.63697 10.1031 7.63697C10.6601 7.67155 11.0779 7.98272 11.1476 8.63963C11.1476 8.67421 11.1476 8.74336 11.1476 8.77793C11.1476 8.84708 11.1128 8.91623 11.0431 8.91623ZM10.695 7.39495C10.5209 7.3258 10.3468 7.25665 10.1379 7.22208C10.0683 7.22208 9.96381 7.1875 9.89418 7.1875C9.78973 7.1875 9.72009 7.11836 9.75491 7.01463C9.75491 6.91091 9.82454 6.84176 9.92899 6.87633C10.2772 6.91091 10.5905 6.98006 10.9039 7.11836C11.5306 7.42953 11.8787 7.94814 11.9832 8.63963C11.9832 8.67421 11.9832 8.70878 11.9832 8.74336C11.9832 8.81251 11.9832 8.88166 11.9832 8.98538C11.9832 9.01995 11.9832 9.05453 11.9832 9.0891C11.9484 9.2274 11.7046 9.26198 11.6698 9.0891C11.6698 9.05453 11.635 8.98538 11.635 8.95081C11.635 8.63964 11.5654 8.32846 11.4261 8.05187C11.2172 7.7407 10.9735 7.53325 10.695 7.39495ZM12.5751 9.46942C12.4706 9.46942 12.401 9.3657 12.401 9.26198C12.401 9.05453 12.3662 8.84708 12.3313 8.63963C12.1921 7.53325 11.2868 6.63431 10.2075 6.46144C10.0334 6.42686 9.85936 6.42686 9.72009 6.39229C9.61564 6.39229 9.47637 6.39229 9.44156 6.25399C9.40674 6.15027 9.51119 6.04655 9.61564 6.04655C9.65046 6.04655 9.68528 6.04655 9.68528 6.04655C11.1128 6.08112 9.75491 6.04655 9.68528 6.04655C11.1476 6.08112 12.3662 7.04921 12.6099 8.50134C12.6447 8.74336 12.6795 8.98538 12.6795 9.26198C12.7492 9.3657 12.6795 9.46942 12.5751 9.46942Z" fill="#243469"/>
</svg>
