<svg width="19" height="19" viewBox="0 0 19 19" fill="none" xmlns="http://www.w3.org/2000/svg">
<circle cx="9.5" cy="9.5" r="9.5" fill="white"/>
<path d="M13.2652 5.72959C12.3268 4.79443 11.0755 4.2749 9.75482 4.2749C7.00908 4.2749 4.78469 6.49157 4.78469 9.22777C4.78469 10.0937 5.02799 10.9595 5.44506 11.6869L4.74994 14.2499L7.3914 13.5572C8.12128 13.9382 8.92067 14.146 9.75482 14.146C12.5005 14.146 14.7249 11.9293 14.7249 9.19313C14.6902 7.91162 14.2036 6.66475 13.2652 5.72959ZM12.153 10.9942C12.0487 11.2713 11.5621 11.5483 11.3188 11.583C11.1103 11.6176 10.8323 11.6176 10.5542 11.5483C10.3804 11.4791 10.1371 11.4098 9.85909 11.2713C8.60787 10.7517 7.80848 9.50485 7.73896 9.40094C7.66945 9.33167 7.21762 8.74287 7.21762 8.11943C7.21762 7.496 7.53043 7.21891 7.6347 7.08037C7.73896 6.94183 7.87799 6.94183 7.98226 6.94183C8.05177 6.94183 8.15604 6.94183 8.22555 6.94183C8.29506 6.94183 8.39933 6.90719 8.5036 7.14964C8.60787 7.39209 8.85116 8.01553 8.88591 8.05016C8.92067 8.11943 8.92067 8.1887 8.88591 8.25798C8.85116 8.32725 8.8164 8.39652 8.74689 8.46579C8.67738 8.53506 8.60787 8.63896 8.57311 8.6736C8.5036 8.74287 8.43409 8.81214 8.5036 8.91605C8.57311 9.05459 8.8164 9.43558 9.19872 9.78193C9.68531 10.1976 10.0676 10.3361 10.2066 10.4054C10.3457 10.4746 10.4152 10.44 10.4847 10.3707C10.5542 10.3015 10.7975 10.0244 10.867 9.88584C10.9365 9.7473 11.0408 9.78193 11.1451 9.81657C11.2493 9.8512 11.8749 10.1629 11.9792 10.2322C12.1182 10.3015 12.1877 10.3361 12.2225 10.3707C12.2573 10.4746 12.2573 10.7171 12.153 10.9942Z" fill="#243469"/>
</svg>
