<svg width="70" height="70" viewBox="0 0 70 70" fill="none" xmlns="http://www.w3.org/2000/svg">
<g clip-path="url(#clip0_15_587)">
<path d="M33.447 8.2495C33.7147 8.27662 33.9826 8.30436 34.2505 8.33275C31.5563 12.3825 30.3988 17.3722 31.1813 22.3196C31.8652 26.643 35.1859 29.3136 38.1609 30.5455L51.471 36.0574C54.446 37.2894 58.6827 37.7483 62.2226 35.1745C65.1284 33.0616 67.3435 30.228 68.7173 27.0349C69.5581 29.5757 70 32.4207 70 35.5971C70 43.2652 67.6581 48.6407 65.2334 52.1285C64.0286 53.8618 62.8149 55.1122 61.8844 55.9408C61.6547 56.1452 61.4416 56.3245 61.25 56.479V62.6862C61.25 66.3105 58.3118 69.2487 54.6875 69.2487H48.6343C45.9366 69.2487 43.75 67.0617 43.75 64.364C43.75 64.0827 43.5221 63.8548 43.2407 63.8548H35.5093C35.2279 63.8548 35 64.0827 35 64.364C35 67.0617 32.8132 69.2487 30.1156 69.2487H24.0625C20.4381 69.2487 17.5 66.3105 17.5 62.6862V60.3303C17.2908 60.2087 17.0618 60.0691 16.8131 59.9077C15.5544 59.0913 13.7925 57.7276 11.5677 55.4723C8.82604 52.6933 7.19381 49.664 6.31094 47.641C5.98325 46.8903 5.39223 46.448 4.84925 46.3561C2.04947 45.8832 0 43.4581 0 40.6187V34.027C0 31.2708 1.98936 28.9172 4.70697 28.458C5.22196 28.371 5.79652 27.9135 6.05224 27.1335C6.71965 25.0979 8.01259 22.0825 10.3853 19.6773C12.3253 17.7107 14.4221 16.2545 16.0168 15.2942C16.5764 14.9572 17.0797 14.678 17.5 14.4563V4.33072C17.5 2.78897 18.5079 1.69409 19.6028 1.25134C20.6899 0.811779 22.1429 0.895255 23.22 1.9323C24.4791 3.14449 26.2133 4.67307 28.0984 5.93626C30.0275 7.22899 31.8934 8.092 33.447 8.2495ZM20.7812 32.0608C22.5934 32.0608 24.0625 30.5917 24.0625 28.7795C24.0625 26.9674 22.5934 25.4983 20.7812 25.4983C18.9691 25.4983 17.5 26.9674 17.5 28.7795C17.5 30.5917 18.9691 32.0608 20.7812 32.0608Z" fill="white"/>
<g filter="url(#filter0_d_15_587)">
<path d="M65.7913 21.2786L65.8101 21.3043C65.2558 25.382 63.0678 29.1509 59.6501 31.6361C57.7728 33.0008 55.2891 32.9035 53.1449 32.0157L39.8348 26.5037C37.7764 25.6512 36.0115 24.0618 35.553 21.9078C35.5324 21.8133 35.5145 21.7178 35.4996 21.6212C34.4207 14.7954 38.0979 7.86755 44.7633 5.10597C52.5718 1.87083 61.5243 5.5782 64.7592 13.3866C65.8315 15.9749 66.1413 18.6888 65.7913 21.2786Z" fill="url(#paint0_linear_15_587)"/>
</g>
</g>
<defs>
<filter id="filter0_d_15_587" x="19.3134" y="-12.0635" width="70.6152" height="68.7373" filterUnits="userSpaceOnUse" color-interpolation-filters="sRGB">
<feFlood flood-opacity="0" result="BackgroundImageFix"/>
<feColorMatrix in="SourceAlpha" type="matrix" values="0 0 0 0 0 0 0 0 0 0 0 0 0 0 0 0 0 0 127 0" result="hardAlpha"/>
<feOffset dx="4" dy="4"/>
<feGaussianBlur stdDeviation="10"/>
<feComposite in2="hardAlpha" operator="out"/>
<feColorMatrix type="matrix" values="0 0 0 0 0.141176 0 0 0 0 0.203922 0 0 0 0 0.411765 0 0 0 0.03 0"/>
<feBlend mode="normal" in2="BackgroundImageFix" result="effect1_dropShadow_15_587"/>
<feBlend mode="normal" in="SourceGraphic" in2="effect1_dropShadow_15_587" result="shape"/>
</filter>
<linearGradient id="paint0_linear_15_587" x1="47.5" y1="-2" x2="60.9989" y2="22.6344" gradientUnits="userSpaceOnUse">
<stop stop-color="#F03A2B"/>
<stop offset="1" stop-color="#FCC009"/>
</linearGradient>
<clipPath id="clip0_15_587">
<rect width="70" height="70" fill="white"/>
</clipPath>
</defs>
</svg>
