<svg width="70" height="66" viewBox="0 0 70 66" fill="none" xmlns="http://www.w3.org/2000/svg">
<g clip-path="url(#clip0_100_2502)">
<g filter="url(#filter0_d_100_2502)">
<path d="M39.4643 3.50714C34.9857 5.38571 28.6714 8.04286 25.4286 9.40714C22.1857 10.7643 19.5072 11.9071 19.4643 11.9429C19.4286 11.9714 26.9786 12 36.2429 12C52.2572 12 53.0857 11.9929 53.0429 11.8714C52.9 11.4929 47.6714 0.0714293 47.6429 0.0714293C47.6214 0.0785723 43.9429 1.62143 39.4643 3.50714Z" fill="url(#paint0_linear_100_2502)"/>
</g>
<path d="M6.46431 4.92858C3.17145 5.29287 0.492879 7.90001 0.0714507 11.15C0.0143078 11.5786 2.21282e-05 18.6714 0.0143078 35.4286L0.0357364 59.1072L0.221451 59.7857C0.592879 61.1286 1.24288 62.2286 2.19288 63.15C3.12145 64.05 4.02859 64.5786 5.32145 64.9786L5.96431 65.1786L32.25 65.2C51.9786 65.2143 58.6714 65.2 59.0714 65.1357C61.9929 64.6857 64.4072 62.3857 65.0072 59.4714C65.1286 58.8714 65.1429 58.4357 65.1429 53.5857V48.3572H52.9857C44.7429 48.3572 40.6143 48.3286 40.1786 48.2786C39.8286 48.2357 39.1857 48.0857 38.7643 47.95C36.4357 47.1786 34.6786 45.3072 34.0214 42.8929L33.8214 42.1786V38.6786V35.1786L34.0214 34.4643C34.65 32.1572 36.3357 30.2857 38.5 29.5C39.8357 29.0072 38.7357 29.05 52.5929 29.0214L65.1429 28.9929V21.75V14.5H35.4286C14.15 14.5 5.61431 14.4786 5.34288 14.4214C4.67859 14.2857 3.93574 13.8786 3.46431 13.4C1.70717 11.6072 2.25716 8.67859 4.55002 7.58573L5.10716 7.32144L15 7.28573L24.8929 7.25001L27.5714 6.12144C29.0429 5.49287 30.3 4.95715 30.3572 4.92144C30.4929 4.85001 7.16431 4.85715 6.46431 4.92858ZM9.64288 20.5714V21.7857H8.42859H7.21431V23V24.2143H6.03574H4.85716V21.7857V19.3572H7.25002H9.64288V20.5714ZM9.64288 27.8643V29.0929L8.45002 29.0643L7.25002 29.0357L7.27145 29.75C7.27859 30.1429 7.30716 30.6786 7.32859 30.9429L7.37145 31.4286H6.11431H4.85716V29.0357V26.6429H7.25002H9.64288V27.8643ZM9.64288 35.0714V36.2857H8.44288H7.25002L7.27145 37.5L7.30002 38.7143H6.07859H4.85716V36.2857V33.8572H7.25002H9.64288V35.0714ZM9.64288 42.3286V43.5786L8.44288 43.5286L7.24288 43.4786L7.27145 44.7072L7.30002 45.9286H6.07859H4.85716V43.5V41.0714H7.25002H9.64288V42.3286ZM9.64288 49.5714V50.7857H8.42859H7.21431V51.9643V53.1429H6.03574H4.85716V50.75V48.3572H7.25002H9.64288V49.5714ZM9.64288 56.8214V58.0714H8.45002H7.25002L7.27859 59.25L7.30002 60.4286H6.07859H4.85716V58V55.5714H7.25002H9.64288V56.8214Z" fill="#243469"/>
<path d="M52.3286 5.01422C52.3571 5.10707 52.6143 5.64993 52.9 6.2285L53.4286 7.28564H58.3214C61.3214 7.28564 63.2142 7.25707 63.2142 7.22136C63.2142 7.1285 62.3857 6.4285 61.8357 6.05707C61.3 5.69279 60.3571 5.2785 59.6857 5.11422C58.8571 4.90707 58.0571 4.85707 55.1214 4.85707H52.2786L52.3286 5.01422Z" fill="#243469"/>
<path d="M40.0429 31.543C38.2143 31.9358 36.7071 33.4358 36.3214 35.2501C36.1714 35.9787 36.1714 41.3787 36.3214 42.1073C36.7143 43.943 38.2214 45.4287 40.0929 45.8144C40.5786 45.9144 42.2071 45.9287 55.3214 45.9287H70V38.6787V31.4287L55.2714 31.4358C42.5357 31.443 40.4714 31.4573 40.0429 31.543ZM45.7286 35.4287C47.4 35.943 48.4786 37.6501 48.2286 39.3716C48.0143 40.8501 46.9214 42.0501 45.4929 42.393C44.25 42.6858 43.05 42.343 42.1357 41.4358C41.3786 40.6787 41.0714 39.9216 41.0714 38.8287C41.0786 37.2573 42 35.9858 43.5071 35.4715C44.1929 35.2358 45.0571 35.2215 45.7286 35.4287Z" fill="#243469"/>
</g>
<defs>
<filter id="filter0_d_100_2502" x="3.46417" y="-15.9285" width="73.5801" height="51.9285" filterUnits="userSpaceOnUse" color-interpolation-filters="sRGB">
<feFlood flood-opacity="0" result="BackgroundImageFix"/>
<feColorMatrix in="SourceAlpha" type="matrix" values="0 0 0 0 0 0 0 0 0 0 0 0 0 0 0 0 0 0 127 0" result="hardAlpha"/>
<feOffset dx="4" dy="4"/>
<feGaussianBlur stdDeviation="10"/>
<feComposite in2="hardAlpha" operator="out"/>
<feColorMatrix type="matrix" values="0 0 0 0 0.141176 0 0 0 0 0.203922 0 0 0 0 0.411765 0 0 0 0.03 0"/>
<feBlend mode="normal" in2="BackgroundImageFix" result="effect1_dropShadow_100_2502"/>
<feBlend mode="normal" in="SourceGraphic" in2="effect1_dropShadow_100_2502" result="shape"/>
</filter>
<linearGradient id="paint0_linear_100_2502" x1="32.831" y1="14.4642" x2="35.4745" y2="1.71652" gradientUnits="userSpaceOnUse">
<stop stop-color="#F03A2B"/>
<stop offset="1" stop-color="#FCC009"/>
</linearGradient>
<clipPath id="clip0_100_2502">
<rect width="70" height="65.2857" fill="white"/>
</clipPath>
</defs>
</svg>
