<svg width="83" height="79" viewBox="0 0 83 79" fill="none" xmlns="http://www.w3.org/2000/svg">
<g filter="url(#filter0_d_100_2501)">
<path d="M37.6369 16.1217C37.2185 16.3076 36.7165 16.7818 36.5305 17.1629C36.4097 17.414 35.8332 20.2217 35.8332 20.5564C35.8332 20.5843 35.4056 20.7516 34.8942 20.919C34.3736 21.0863 33.5647 21.421 33.0906 21.6627L32.226 22.0904L30.943 21.1793C30.2364 20.6865 29.5391 20.231 29.3811 20.1752C28.9534 20.0264 28.1074 20.0636 27.6983 20.2589C27.1591 20.5099 25.0114 22.7226 24.8627 23.1782C24.7232 23.6337 24.7139 24.2287 24.8441 24.6378C24.9092 24.8144 25.3647 25.5396 25.8668 26.2555L26.7779 27.5385L26.3409 28.4217C26.0992 28.9052 25.7645 29.7047 25.5971 30.1975C25.4391 30.6902 25.2996 31.1086 25.2903 31.1179C25.2903 31.1179 24.5838 31.2573 23.7191 31.4154C21.9899 31.7315 21.6459 31.8523 21.2275 32.3358C20.7255 32.9122 20.679 33.1167 20.679 35.0041C20.679 36.8635 20.7162 37.0773 21.1903 37.6351C21.5808 38.1093 22.0178 38.2766 23.5239 38.5369C24.2863 38.6671 25.0021 38.7973 25.1044 38.8159C25.2624 38.853 25.374 39.0669 25.6436 39.8478C25.8296 40.3871 26.1643 41.1959 26.3874 41.6329L26.7872 42.4417L25.9597 43.6039C24.9185 45.0635 24.7697 45.361 24.7697 46.0583C24.7697 46.8764 24.9835 47.2297 26.2851 48.5127C27.5123 49.7213 27.8377 49.9259 28.5722 49.9259C29.2416 49.9259 29.6135 49.7492 30.9988 48.7637L32.226 47.8991L33.2579 48.3919C33.8344 48.6615 34.6153 48.9776 34.9965 49.0984C35.3777 49.2193 35.731 49.3402 35.7682 49.3681C35.8053 49.4052 35.9634 50.1397 36.1122 51.0043C36.4375 52.8266 36.6235 53.2356 37.358 53.6912L37.8135 53.9701L39.4684 53.998C40.4818 54.0166 41.2627 53.9887 41.5045 53.9236C41.96 53.8028 42.5643 53.2821 42.7968 52.8173C42.9455 52.5198 43.243 51.1345 43.4197 49.9073C43.4476 49.6656 43.5219 49.4331 43.587 49.3959C43.6428 49.3495 44.0705 49.1914 44.526 49.0427C44.9909 48.8939 45.7532 48.5685 46.2367 48.3361L47.1106 47.8991L48.3657 48.7823C49.063 49.2751 49.7789 49.7306 49.9555 49.8143C50.3553 49.9724 51.285 49.9259 51.6755 49.7213C52.066 49.5168 54.2043 47.3599 54.3809 46.988C54.6041 46.5046 54.6505 45.8538 54.4832 45.3889C54.4088 45.1751 53.9347 44.422 53.4419 43.734L52.5494 42.4696L53.0143 41.4748C53.2746 40.9356 53.6 40.136 53.7394 39.6991C53.8789 39.2621 53.9997 38.8995 54.009 38.8809C54.0183 38.8716 54.7156 38.7415 55.5524 38.5927C57.3095 38.2766 57.449 38.2394 57.9045 37.8304C58.5925 37.2261 58.6576 36.9936 58.6576 35.0041C58.6576 33.061 58.6297 32.9215 58.0161 32.28C57.5698 31.8059 57.3374 31.7129 55.6081 31.4154C54.7342 31.2573 54.009 31.1272 54.009 31.1179C53.9997 31.1086 53.9068 30.7832 53.7859 30.402C53.6744 30.0208 53.3397 29.2213 53.0607 28.6263L52.5494 27.5478L53.4884 26.1904C54.6227 24.5727 54.7621 24.1637 54.4832 23.2711C54.3251 22.7877 54.1857 22.611 53.1351 21.5605C52.4936 20.919 51.8149 20.324 51.6197 20.2403C51.1455 20.0171 50.1972 20.0357 49.7696 20.2589C49.5836 20.3611 48.9235 20.7981 48.3006 21.2351C47.6777 21.672 47.1385 22.0346 47.092 22.0346C47.0548 22.0346 46.5807 21.8301 46.0507 21.5791C45.5208 21.328 44.7306 21.0119 44.2936 20.8725L43.5033 20.6122L43.2337 19.1153C42.9548 17.4883 42.7875 17.0142 42.3784 16.6051C41.8299 16.0566 41.5417 15.9915 39.645 16.0008C38.4178 16.0008 37.8414 16.038 37.6369 16.1217ZM41.114 28.5891C42.397 28.8959 43.5126 29.5374 44.4145 30.495C46.8875 33.1075 46.8131 37.1331 44.2471 39.6526C43.4569 40.4336 42.7968 40.8333 41.7276 41.2052C40.0913 41.7723 38.3806 41.6422 36.7629 40.8519C36.0285 40.4893 35.7403 40.2755 35.0802 39.6154C33.7507 38.2859 33.2394 37.1331 33.165 35.283C33.1092 34.0093 33.2394 33.3027 33.6949 32.2986C34.5502 30.402 36.1122 29.119 38.204 28.5891C38.8548 28.4217 40.4074 28.4217 41.114 28.5891Z" fill="url(#paint0_linear_100_2501)"/>
</g>
<path d="M54.0555 52.7985C53.8231 52.8729 51.1455 53.9141 47.2222 55.4574C46.0973 55.9037 45.0281 56.3221 44.8515 56.3871L44.5261 56.508L44.8515 56.5545C45.0281 56.5824 45.4465 56.6382 45.7812 56.666C46.5249 56.7311 47.1757 56.9171 47.6963 57.2239L48.0961 57.4563L52.3542 55.3273L56.6122 53.1983L56.1473 52.9844C55.6546 52.752 54.5018 52.6497 54.0555 52.7985Z" fill="#243469"/>
<path d="M59.6245 53.6821C59.4478 53.7565 59.0295 53.9517 58.6948 54.1283C58.3694 54.305 57.0585 54.993 55.7755 55.6438C54.5018 56.2946 53.2466 56.9454 52.9863 57.0848C52.7353 57.2243 51.8428 57.6798 51.006 58.1075C50.0856 58.5631 49.5092 58.9071 49.5371 58.9721C50.002 60.0134 50.0949 60.3574 50.1414 61.1291L50.1972 61.9751L56.4449 58.1633C60.8052 55.5043 62.6646 54.3143 62.6088 54.2492C62.5624 54.1841 62.302 54.0168 62.0324 53.8773C61.614 53.6542 61.4095 53.6077 60.7494 53.5798C60.2381 53.5612 59.8383 53.5984 59.6245 53.6821Z" fill="#243469"/>
<path d="M5.62699 54.156C4.22313 54.2304 2.88435 54.3326 2.65192 54.3884C1.63854 54.6394 0.708829 55.4297 0.234677 56.4338C0.00225029 56.9172 -0.00704679 57.0195 0.0022503 58.4326C0.0022503 59.2508 0.0580328 60.7941 0.123112 61.8726C0.188192 62.9417 0.336945 65.703 0.457807 68.0086C0.625155 71.1697 0.708829 72.2946 0.829691 72.6107C1.35033 74.0796 2.54035 75.0093 4.01859 75.1023C4.98549 75.1674 10.6195 74.9164 11.3354 74.7862C12.0141 74.6561 13.0647 73.903 13.3901 73.3266C13.4644 73.1964 13.5388 73.2057 14.0316 73.4474L14.5894 73.7078L26.1642 74.4701C32.5327 74.8792 38.2876 75.2697 38.9477 75.3254C39.6171 75.3812 41.0582 75.437 42.1552 75.437C43.8101 75.437 44.34 75.3998 45.2233 75.2325C47.2314 74.8606 48.9235 74.2656 50.5505 73.3545C51.4244 72.871 52.1775 72.3597 57.7093 68.4642C59.4571 67.2277 62.6925 64.9592 64.8866 63.4159C67.09 61.8726 69.0238 60.4501 69.2004 60.2642C69.3678 60.0782 69.6188 59.6878 69.7583 59.4088C69.9628 58.9719 70 58.7766 70 58.0608C69.9907 57.066 69.8048 56.5825 69.1912 55.9131C68.4939 55.1508 67.6199 54.7603 66.6623 54.7603C65.9279 54.7696 65.3979 55.002 63.4456 56.1921C62.4508 56.8057 59.0015 58.8882 55.7755 60.8313C52.5587 62.7651 49.8811 64.3921 49.8253 64.4293C49.5464 64.6524 47.9473 65.3776 47.3523 65.5542C46.4784 65.8052 44.9444 65.861 38.2319 65.8982L33.323 65.9261L33.0906 65.6937C32.6908 65.2939 32.8024 64.6338 33.2951 64.4479C33.4532 64.3921 35.0616 64.327 37.4137 64.2991C44.3493 64.1968 45.6788 64.1504 46.1995 63.9551C46.8689 63.7041 47.3151 63.3043 47.6312 62.6349C48.0031 61.8726 48.0682 61.3333 47.8822 60.6918C47.594 59.6878 46.7945 58.8789 45.8927 58.6744C45.6509 58.6186 43.931 58.4698 42.0623 58.3397C39.6078 58.163 38.2226 58.0236 37.0418 57.819C31.4171 56.8428 31.445 56.8521 29.3438 56.0712C25.5042 54.6301 22.7522 54.1281 19.3774 54.2304C17.2297 54.2954 15.6678 54.5744 13.4179 55.2809L12.6742 55.5134L12.293 55.0857C12.0885 54.8533 11.6608 54.5279 11.3447 54.3605C10.7962 54.0723 10.7404 54.063 9.47598 54.0537C8.7601 54.0444 7.03085 54.0909 5.62699 54.156ZM7.43062 67.9715C7.98845 68.1295 8.63924 68.8361 8.7694 69.4404C9.02042 70.6118 8.33244 71.6531 7.12382 71.9134C6.04536 72.1458 4.78095 71.0674 4.78095 69.9145C4.78095 68.8919 5.76644 67.8878 6.77982 67.8692C6.93788 67.8692 7.22608 67.9157 7.43062 67.9715Z" fill="#243469"/>
<defs>
<filter id="filter0_d_100_2501" x="4.67899" y="0" width="77.9786" height="78.0037" filterUnits="userSpaceOnUse" color-interpolation-filters="sRGB">
<feFlood flood-opacity="0" result="BackgroundImageFix"/>
<feColorMatrix in="SourceAlpha" type="matrix" values="0 0 0 0 0 0 0 0 0 0 0 0 0 0 0 0 0 0 127 0" result="hardAlpha"/>
<feOffset dx="4" dy="4"/>
<feGaussianBlur stdDeviation="10"/>
<feComposite in2="hardAlpha" operator="out"/>
<feColorMatrix type="matrix" values="0 0 0 0 0.141176 0 0 0 0 0.203922 0 0 0 0 0.411765 0 0 0 0.03 0"/>
<feBlend mode="normal" in2="BackgroundImageFix" result="effect1_dropShadow_100_2501"/>
<feBlend mode="normal" in="SourceGraphic" in2="effect1_dropShadow_100_2501" result="shape"/>
</filter>
<linearGradient id="paint0_linear_100_2501" x1="35.7966" y1="61.8544" x2="54.2459" y2="30.272" gradientUnits="userSpaceOnUse">
<stop stop-color="#F03A2B"/>
<stop offset="1" stop-color="#FCC009"/>
</linearGradient>
</defs>
</svg>
