<svg width="70" height="70" viewBox="0 0 70 70" fill="none" xmlns="http://www.w3.org/2000/svg">
<g clip-path="url(#clip0_100_2508)">
<g filter="url(#filter0_d_100_2508)">
<path d="M0 13.9999V16.7999H12.6H25.2V18.1999V19.5999H12.6H0V20.9999V22.3999H10.5H21V23.7999V25.1999H10.5H0V26.5999V27.9999H8.4H16.8V29.3999V30.7999H8.4H0V32.1999V33.5999H6.3H12.6V34.9999V36.3999H6.3H0L0.013125 44.4368L0.021875 52.478L0.1225 52.8411C0.538125 54.3943 1.61437 55.4661 3.15875 55.8774C3.51312 55.9736 3.5875 55.9736 6.71562 55.9868L9.91375 56.0043L10.0363 56.5293C10.7406 59.5743 13.1906 62.0418 16.2094 62.7505C16.9881 62.9343 17.3425 62.9736 18.2 62.9736C19.0575 62.9736 19.4119 62.9343 20.1906 62.7505C23.2094 62.0418 25.6594 59.5743 26.3638 56.5293L26.4862 55.9999H32.8431H39.2L39.1912 35.3368C39.1781 15.3561 39.1738 14.6693 39.095 14.3936C38.9813 13.9955 38.6706 13.3436 38.4344 13.0111C38.1806 12.6568 37.7431 12.2193 37.3888 11.9655C37.0563 11.7293 36.4044 11.4186 36.0062 11.3049C35.7306 11.2261 35.1094 11.2218 17.8631 11.2086L0 11.1999V13.9999ZM18.8344 49.048C20.0725 49.1968 21.1531 49.6999 22.0456 50.553C23.0519 51.5111 23.6163 52.6749 23.7606 54.0793C23.9269 55.6674 23.3713 57.2686 22.2469 58.4455C20.2781 60.5105 17.1369 60.7774 14.8444 59.0711C14.0262 58.4586 13.3263 57.5311 12.9719 56.5861C12.4775 55.2693 12.495 53.7686 13.0288 52.4736C13.5975 51.078 14.805 49.9011 16.2138 49.3718C17.0581 49.0524 17.9594 48.943 18.8344 49.048Z" fill="url(#paint0_linear_100_2508)"/>
</g>
<g filter="url(#filter1_d_100_2508)">
<path d="M45.7625 21.0305C44.8306 21.1836 44.0737 21.5905 43.3299 22.3299C42.7043 22.9555 42.3456 23.5505 42.1224 24.3074L42.0218 24.653L42.0087 40.3243L41.9999 55.9999H44.8568H47.7137L47.8362 56.5293C48.5406 59.5743 50.9906 62.0418 54.0094 62.7505C54.7881 62.9343 55.1425 62.9736 56 62.9736C56.8575 62.9736 57.2119 62.9343 57.9906 62.7505C61.0094 62.0418 63.4594 59.5743 64.1638 56.5336L64.2863 56.0086L65.3188 55.9911C66.2069 55.9736 66.395 55.9561 66.6925 55.873C67.4363 55.663 68.0401 55.2955 68.6701 54.6699C69.2957 54.0443 69.6544 53.4493 69.8776 52.6924L69.9782 52.3468L69.9913 45.2155C70.0001 40.1493 69.9913 37.9661 69.9563 37.6686C69.7726 36.1068 69.1163 34.4399 68.0094 32.7249C67.6901 32.2349 62.2038 24.863 61.7619 24.3293C61.0663 23.498 60.3181 22.7893 59.5525 22.2336C59.0669 21.8836 58.0606 21.3849 57.5531 21.2405C56.7088 20.9999 56.7613 20.9999 51.1 21.0043C48.2256 21.0086 45.8237 21.0218 45.7625 21.0305ZM56.6344 49.048C57.8725 49.1968 58.9531 49.6999 59.8456 50.553C60.8519 51.5111 61.4163 52.6749 61.5607 54.0793C61.7269 55.6674 61.1713 57.2686 60.0469 58.4455C58.0781 60.5105 54.9369 60.7774 52.6444 59.0711C51.8262 58.4586 51.1262 57.5311 50.7719 56.5861C50.2775 55.2693 50.295 53.7686 50.8287 52.4736C51.3975 51.078 52.605 49.9011 54.0137 49.3718C54.8581 49.0524 55.7594 48.943 56.6344 49.048Z" fill="#243469"/>
</g>
</g>
<defs>
<filter id="filter0_d_100_2508" x="-16" y="-4.80005" width="79.2" height="91.7737" filterUnits="userSpaceOnUse" color-interpolation-filters="sRGB">
<feFlood flood-opacity="0" result="BackgroundImageFix"/>
<feColorMatrix in="SourceAlpha" type="matrix" values="0 0 0 0 0 0 0 0 0 0 0 0 0 0 0 0 0 0 127 0" result="hardAlpha"/>
<feOffset dx="4" dy="4"/>
<feGaussianBlur stdDeviation="10"/>
<feComposite in2="hardAlpha" operator="out"/>
<feColorMatrix type="matrix" values="0 0 0 0 0.141176 0 0 0 0 0.203922 0 0 0 0 0.411765 0 0 0 0.03 0"/>
<feBlend mode="normal" in2="BackgroundImageFix" result="effect1_dropShadow_100_2508"/>
<feBlend mode="normal" in="SourceGraphic" in2="effect1_dropShadow_100_2508" result="shape"/>
</filter>
<filter id="filter1_d_100_2508" x="25.9999" y="5.00317" width="67.9945" height="81.9705" filterUnits="userSpaceOnUse" color-interpolation-filters="sRGB">
<feFlood flood-opacity="0" result="BackgroundImageFix"/>
<feColorMatrix in="SourceAlpha" type="matrix" values="0 0 0 0 0 0 0 0 0 0 0 0 0 0 0 0 0 0 127 0" result="hardAlpha"/>
<feOffset dx="4" dy="4"/>
<feGaussianBlur stdDeviation="10"/>
<feComposite in2="hardAlpha" operator="out"/>
<feColorMatrix type="matrix" values="0 0 0 0 0.141176 0 0 0 0 0.203922 0 0 0 0 0.411765 0 0 0 0.03 0"/>
<feBlend mode="normal" in2="BackgroundImageFix" result="effect1_dropShadow_100_2508"/>
<feBlend mode="normal" in="SourceGraphic" in2="effect1_dropShadow_100_2508" result="shape"/>
</filter>
<linearGradient id="paint0_linear_100_2508" x1="15.6038" y1="73.669" x2="43.5092" y2="37.4766" gradientUnits="userSpaceOnUse">
<stop stop-color="#F03A2B"/>
<stop offset="1" stop-color="#FCC009"/>
</linearGradient>
<clipPath id="clip0_100_2508">
<rect width="70" height="70" fill="white"/>
</clipPath>
</defs>
</svg>
