<svg width="70" height="70" viewBox="0 0 70 70" fill="none" xmlns="http://www.w3.org/2000/svg">
<g clip-path="url(#clip0_15_593)">
<path d="M21.0089 0C20.0772 0.000176599 19.1841 0.371709 18.5272 1.03234L2.06466 17.4949H47.5691L65.064 0H21.0089ZM70 4.96337L52.5051 22.4583V67.9627L68.995 51.4728C69.6456 50.8114 70.0071 49.9188 70 48.9911L70 4.96337ZM0 24.4956V66.5133C0.00768951 68.4358 1.56424 69.9923 3.48668 70C17.4926 70 31.4985 70 45.5044 70V24.4956H0Z" fill="white"/>
<g filter="url(#filter0_d_15_593)">
<path d="M70 4.96338L52.5052 22.4583V67.9627L68.9951 51.4728C69.6457 50.8114 70.0071 49.9188 70 48.9911L70 4.96338Z" fill="url(#paint0_linear_15_593)"/>
</g>
</g>
<defs>
<filter id="filter0_d_15_593" x="36.5052" y="-11.0366" width="57.495" height="102.999" filterUnits="userSpaceOnUse" color-interpolation-filters="sRGB">
<feFlood flood-opacity="0" result="BackgroundImageFix"/>
<feColorMatrix in="SourceAlpha" type="matrix" values="0 0 0 0 0 0 0 0 0 0 0 0 0 0 0 0 0 0 127 0" result="hardAlpha"/>
<feOffset dx="4" dy="4"/>
<feGaussianBlur stdDeviation="10"/>
<feComposite in2="hardAlpha" operator="out"/>
<feColorMatrix type="matrix" values="0 0 0 0 0.141176 0 0 0 0 0.203922 0 0 0 0 0.411765 0 0 0 0.03 0"/>
<feBlend mode="normal" in2="BackgroundImageFix" result="effect1_dropShadow_15_593"/>
<feBlend mode="normal" in="SourceGraphic" in2="effect1_dropShadow_15_593" result="shape"/>
</filter>
<linearGradient id="paint0_linear_15_593" x1="59.4691" y1="-8.0509" x2="86.7088" y2="4.90686" gradientUnits="userSpaceOnUse">
<stop stop-color="#F03A2B"/>
<stop offset="1" stop-color="#FCC009"/>
</linearGradient>
<clipPath id="clip0_15_593">
<rect width="70" height="70" fill="white"/>
</clipPath>
</defs>
</svg>
