<svg width="70" height="70" viewBox="0 0 70 70" fill="none" xmlns="http://www.w3.org/2000/svg">
<g clip-path="url(#clip0_32_1424)">
<path d="M62.8445 17.2411C62.2378 17.3189 62.1367 17.4278 62.1523 17.9878C62.16 18.2133 62.1289 18.4467 62.0745 18.5089C62.0278 18.5711 61.7323 18.68 61.4289 18.7578L60.8689 18.89L59.2667 20.3289C58.3878 21.1222 57.6256 21.8222 57.5789 21.8844C57.3767 22.1255 57.4623 22.4133 57.8045 22.7011C58.1312 22.9733 58.1312 22.9733 58.0378 23.2767C57.9212 23.6811 57.7656 23.8055 57.2056 23.9611C56.9489 24.0389 56.7 24.1244 56.6612 24.1633C56.6145 24.1944 56.4434 24.5678 56.2723 24.9878C55.8523 26.0611 55.8056 26.1 54.7556 26.1C53.76 26.1 53.8223 26.0533 53.4256 27.1344C53.1067 28.0289 53.0289 28.0678 52.1578 27.7878C51.8078 27.6711 51.4578 27.5778 51.38 27.5778C51.3023 27.5778 50.6489 27.9822 49.9256 28.48C48.4556 29.4833 48.4245 29.5222 48.8134 30.0978C48.93 30.2611 49.0234 30.4789 49.0234 30.58C49.0234 30.8056 47.7867 32.5089 47.5378 32.6256C47.3823 32.7033 47.25 32.6722 46.69 32.4311L46.0289 32.1433L45.2045 32.1978C42.7778 32.3456 42.49 32.3922 41.4945 32.8044C39.9623 33.4422 40.0167 33.4267 39.7911 33.2478C39.5111 33.0222 39.5345 32.82 39.9545 31.7544C40.4367 30.5489 40.4523 30.5878 39.0056 29.9811C38.4067 29.7322 37.8234 29.5222 37.7145 29.5222C37.6056 29.5222 37.3256 29.6544 37.0923 29.8178C36.8589 29.9811 35.9878 30.58 35.1556 31.1478C34.3234 31.7156 33.5923 32.2367 33.5456 32.3067C33.4834 32.3844 33.4445 32.6722 33.4445 33.0689C33.4445 33.9089 33.39 33.9556 32.34 33.9556C31.4534 33.9556 31.3445 34.0178 31.3445 34.5389C31.3445 34.9822 31.1267 35.1611 30.5045 35.2311C30.2167 35.2622 29.9989 35.3322 29.9211 35.4178C29.8589 35.4878 29.5556 36.11 29.2445 36.7944C28.9411 37.4789 28.6456 38.0856 28.5911 38.14C28.4745 38.2567 27.9767 38.35 27.8134 38.2878C27.7045 38.2489 27.7122 38.1944 27.8134 37.8367C27.8834 37.6189 28.1245 36.7478 28.3578 35.9078C28.77 34.3989 28.77 34.3833 28.63 34.1889C28.5445 34.0644 28.3656 33.9711 28.1634 33.9244C27.8834 33.8622 27.8134 33.8778 27.6967 34.0022C27.6189 34.08 27.2689 34.85 26.9189 35.7056C26.5611 36.5611 26.2189 37.3233 26.1567 37.3933C26.0867 37.4711 25.9311 37.5333 25.8145 37.5333C25.6045 37.5333 25.4956 37.4556 24.29 36.3433C23.9867 36.0556 23.7611 36.0556 23.3489 36.3278L23.0222 36.5378L21.49 36.2111C19.5534 35.7911 18.7367 35.6044 18.6978 35.5656C18.6745 35.55 18.7289 35.3867 18.8145 35.2078C18.9934 34.8033 18.9545 34.6244 18.6278 34.3833C18.2156 34.0644 18.0756 34.1189 17.1734 34.9278L16.3489 35.6667H14.8011C13.2922 35.6667 13.2456 35.6589 13.09 35.4956C12.7945 35.1611 12.5222 34.6944 12.5222 34.5156C12.5222 34.2744 13.3389 33.1156 13.5878 32.9989C13.86 32.8744 13.9689 32.9678 14.5056 33.7689C15.1045 34.6633 15.1434 34.6633 16.1078 34.0178C16.6678 33.6444 16.8467 33.4811 16.8622 33.3333C16.8856 33.1156 15.7889 29.7478 15.6334 29.5611C15.5556 29.4678 15.3611 29.4444 14.77 29.4444C13.8134 29.4444 13.7667 29.4911 13.7667 30.4322V31.0778H13.3234H12.88L11.6511 32.3067L10.4222 33.5356V34.1189C10.4222 35.0056 10.4378 34.9978 8.64891 35.0211C7.25668 35.0367 7.20224 35.0444 7.00779 35.2233C6.8989 35.3244 6.29224 35.8533 5.66224 36.3978C4.89224 37.0667 4.51113 37.4478 4.51113 37.5567C4.51113 37.6422 4.6589 38.0078 4.83002 38.3733L5.15668 39.0344L4.69779 39.9678C4.06779 41.2433 4.05224 41.2667 3.54668 41.2667C2.87779 41.2667 2.87779 41.2744 2.87779 43.1256V44.6967L3.59335 46.0733C4.39446 47.6289 4.41779 47.7611 3.91224 47.9789C3.7489 48.0489 2.84668 48.3833 1.90557 48.7256C0.801124 49.13 0.163346 49.3944 0.0933459 49.4956C0.015568 49.6122 0.015568 49.8378 0.0700125 50.4911L0.140013 51.3389L1.12779 53.0889C1.67224 54.0533 2.39557 55.3444 2.74557 55.9511C3.14224 56.6589 3.43779 57.0944 3.5389 57.1333C3.63224 57.1644 3.91224 57.1878 4.16113 57.18C4.77557 57.1567 4.8689 57.0244 4.9389 56.1456C5.04002 54.7767 5.12557 54.2244 5.26557 54.0844C5.35113 54.0067 5.73224 53.89 6.16779 53.7967C6.58779 53.7111 6.98446 53.6022 7.04668 53.5478C7.10891 53.5011 7.35002 53.0967 7.58335 52.6611L8.01113 51.8678V51.0433C8.01113 49.9311 7.97224 49.9544 9.7378 49.83C10.4767 49.7678 11.1845 49.7367 11.3089 49.7522C11.4956 49.7756 11.6978 49.97 12.3589 50.7867L13.1834 51.7822L14.5445 52.4744C15.2911 52.8478 15.9756 53.1589 16.0689 53.1667C16.3022 53.1667 16.4111 53.0111 16.94 51.9533C17.2045 51.4322 17.4689 50.95 17.5389 50.88C17.6478 50.7711 17.9511 50.7556 20.0667 50.7556C22.8045 50.7556 22.5556 50.6933 22.9834 51.5256C23.1234 51.8133 23.2867 52.0856 23.3489 52.1322C23.4034 52.1789 24.01 52.35 24.6945 52.5133C25.3789 52.6767 25.9856 52.8478 26.04 52.8867C26.1022 52.9333 26.53 53.7189 26.9889 54.6444L27.8289 56.3244L30.3178 57.6622C31.6867 58.4011 32.8689 59 32.9545 59C33.04 59 33.4056 58.7589 33.7634 58.4711C35.1011 57.39 35.5678 57.0556 35.7234 57.0556C35.8089 57.0556 36.0811 57.25 36.33 57.4833C36.5789 57.7167 36.8278 57.9111 36.8978 57.9111C36.96 57.9111 37.5123 57.8256 38.1189 57.7167C39.5423 57.4678 39.5423 57.4678 39.4723 56.5656C39.4256 55.9744 39.4411 55.8578 39.5578 55.7256C39.7289 55.5389 39.9856 55.5389 40.6078 55.7411C41.4789 56.0211 41.5334 56.0522 41.6967 56.3633C41.7823 56.5344 41.8756 56.6667 41.9067 56.6667C41.9378 56.6667 42.4356 56.5889 43.0111 56.4956L44.0689 56.3322L44.7456 56.6978L45.4223 57.0711L46.69 56.9078C47.3823 56.8144 48.02 56.7056 48.1056 56.6589C48.1912 56.6122 48.4556 56.2622 48.6889 55.8811C49.3189 54.8467 49.28 54.87 50.26 55.0333L50.8512 55.1422L51.4812 54.5744C52.0023 54.1078 52.1112 53.9678 52.1112 53.7733C52.1112 53.6489 52.0023 53.0189 51.8778 52.3733C51.6678 51.3389 51.6523 51.1756 51.7534 51.0356C51.8934 50.8256 54.1489 49.5111 54.3667 49.5111C54.46 49.5111 54.9189 49.8378 55.4712 50.3044C55.9923 50.7478 56.6534 51.3078 56.9489 51.5489L57.4934 52H58.2789C58.7145 52 59.4767 52.0233 59.9667 52.0467C60.9778 52.1011 60.9312 52.1244 61.2889 51.4633C61.46 51.1522 61.5223 51.1056 61.7634 51.0822C61.9345 51.0667 62.0745 51.0978 62.1289 51.1678C62.2689 51.3311 62.8445 53.0033 62.8445 53.2444C62.8445 53.5167 62.6656 53.6644 62.1834 53.7889C61.9734 53.8433 61.7712 53.9133 61.74 53.9367C61.7089 53.96 61.6623 54.1389 61.6312 54.3256L61.5767 54.66L62.1834 55.2356L62.7823 55.8111H63.4667H64.1512L64.54 55.3211C65.1312 54.5744 65.1078 54.6911 64.9834 53.0033C64.6878 48.9822 64.75 49.4178 64.2367 48.1889C63.9878 47.5822 63.7778 47.0456 63.7778 46.9911C63.7778 46.82 64.0889 46.5556 64.2912 46.5556C64.4467 46.5556 64.7345 46.8044 65.5434 47.6444C66.2512 48.3756 66.6478 48.7333 66.7645 48.7333C66.8501 48.7333 67.0601 48.6089 67.2234 48.4533C67.69 48.01 67.6434 47.8622 66.7723 47.1078C65.9634 46.4078 65.8778 46.2289 66.1889 45.8322C66.3912 45.5756 66.3834 45.3733 66.1734 45.1789C66.0723 45.0933 65.2634 44.5022 64.3612 43.8722C63.4667 43.2422 62.6734 42.6744 62.6034 42.6122C62.4945 42.5189 62.4712 42.5189 62.4245 42.6278C62.4012 42.6978 62.3778 42.8456 62.3778 42.9467C62.3778 43.1956 62.1834 43.5689 62.0278 43.6311C61.9578 43.6544 61.5845 43.6778 61.2112 43.6778C60.5889 43.6778 60.5112 43.6933 60.4023 43.8489C60.3323 43.9422 60.2778 44.1133 60.2778 44.23C60.2778 44.5878 60.0678 44.6889 59.3289 44.6889C58.7845 44.6889 58.6445 44.6656 58.5356 44.5411C58.4189 44.4167 58.4034 44.0822 58.3567 41.7178C58.3334 40.2478 58.3334 38.9567 58.3567 38.8478C58.3878 38.7156 58.8545 38.3189 59.8889 37.5411C61.3045 36.4756 61.3978 36.3822 62.0123 35.5578C62.37 35.0833 62.6812 34.6556 62.7123 34.6011C62.7512 34.5467 62.6345 34.4144 62.4167 34.2667L62.0667 34.0256V32.4778V30.9378L62.4712 30.5722C62.9223 30.1678 63.1089 30.0667 63.3345 30.1289C63.63 30.2067 63.6067 30.1444 64.4467 33.9167C64.7189 35.1689 64.8434 35.5889 64.9678 35.7133C65.0612 35.8067 65.7378 36.3044 66.4612 36.81C68.6856 38.3733 68.5767 38.3111 69.0667 38.3111C69.9612 38.3111 70.0467 38.1944 69.8989 37.1678L69.7901 36.46L68.4912 34.2044C67.7834 32.9678 67.1301 31.8944 67.0523 31.8244C66.9201 31.7078 66.8578 31.7 66.43 31.7856C65.9867 31.8789 65.94 31.8789 65.8078 31.7389C65.5978 31.5211 64.7889 29.9578 64.7889 29.7867C64.7889 29.7011 65.0067 29.25 65.2634 28.7833C65.5201 28.3089 65.8 27.7878 65.8934 27.6089L66.0489 27.29L65.6212 25.47C65.3801 24.4667 65.1078 23.3156 65.0145 22.9111C64.9212 22.5067 64.7967 22.11 64.7267 22.0322C64.5712 21.8533 64.3067 21.8611 63.9956 22.0555C63.5912 22.3044 63.3812 22.2578 62.8523 21.8144C62.3156 21.3633 62.1989 21.2 62.2845 20.9822C62.3156 20.9044 62.7823 20.3678 63.3345 19.7922C64.0812 19.0067 64.3223 18.7033 64.3223 18.5555C64.3223 18.2756 63.9567 17.3733 63.8012 17.2489C63.6612 17.1478 63.5834 17.1478 62.8445 17.2411Z" fill="white"/>
<path d="M47.95 25.6723C47.5844 25.8745 47.4289 26.0223 47.25 26.3412C47.0478 26.7067 46.9622 26.7767 46.5578 26.9323C46.3011 27.0256 46.0678 27.15 46.0289 27.2045C45.8889 27.43 45.9666 27.7023 46.2622 27.9823C46.7755 28.4723 46.97 28.4412 47.5222 27.7567C47.7167 27.5234 48.1444 27.08 48.4789 26.7845C49.14 26.1778 49.21 25.9834 48.9144 25.6023C48.7044 25.3378 48.5178 25.3456 47.95 25.6723Z" fill="white"/>
<path d="M34.9067 25.8823C34.8522 25.9912 34.8133 26.3567 34.8055 26.7612V27.4612L35.4122 27.8189C36.0578 28.2078 36.5789 28.3323 36.9445 28.1689C37.45 27.9434 37.0145 26.9789 36.0578 26.1778C35.4355 25.6567 35.0855 25.5634 34.9067 25.8823Z" fill="white"/>
<path d="M27.2456 29.2578C26.5144 29.3978 25.8456 29.5456 25.7678 29.5922C25.69 29.6311 24.8267 30.3467 23.8389 31.1711C22.4 32.3767 22.0422 32.7111 22.0267 32.8822C22.0033 33.0533 22.0889 33.1933 22.4078 33.5278C22.8044 33.9478 23.0611 34.0567 23.31 33.8933C23.3567 33.8622 23.6211 33.4656 23.8933 33.0067L24.3833 32.1822L25.7444 31.28L27.1133 30.3778L27.9533 30.2611C28.4122 30.1989 28.8556 30.1056 28.9411 30.0667C29.2211 29.9111 29.05 29.1178 28.7233 29.04C28.6456 29.0245 27.9844 29.1178 27.2456 29.2578Z" fill="white"/>
<g filter="url(#filter0_d_32_1424)">
<path fill-rule="evenodd" clip-rule="evenodd" d="M25.1664 39.1C28.7734 34.5859 37 23.6453 37 17.5C37 10.0441 30.9531 4 23.5 4C16.0441 4 10 10.0441 10 17.5C10 23.6453 18.1633 34.5859 21.8336 39.1C22.6984 40.1758 24.3016 40.1758 25.1664 39.1ZM23.5 26.0345C28.2135 26.0345 32.0345 22.2135 32.0345 17.5C32.0345 12.7865 28.2135 8.96552 23.5 8.96552C18.7865 8.96552 14.9655 12.7865 14.9655 17.5C14.9655 22.2135 18.7865 26.0345 23.5 26.0345Z" fill="url(#paint0_linear_32_1424)"/>
</g>
</g>
<defs>
<filter id="filter0_d_32_1424" x="-6" y="-12" width="67" height="75.9067" filterUnits="userSpaceOnUse" color-interpolation-filters="sRGB">
<feFlood flood-opacity="0" result="BackgroundImageFix"/>
<feColorMatrix in="SourceAlpha" type="matrix" values="0 0 0 0 0 0 0 0 0 0 0 0 0 0 0 0 0 0 127 0" result="hardAlpha"/>
<feOffset dx="4" dy="4"/>
<feGaussianBlur stdDeviation="10"/>
<feComposite in2="hardAlpha" operator="out"/>
<feColorMatrix type="matrix" values="0 0 0 0 0.141176 0 0 0 0 0.203922 0 0 0 0 0.411765 0 0 0 0.03 0"/>
<feBlend mode="normal" in2="BackgroundImageFix" result="effect1_dropShadow_32_1424"/>
<feBlend mode="normal" in="SourceGraphic" in2="effect1_dropShadow_32_1424" result="shape"/>
</filter>
<linearGradient id="paint0_linear_32_1424" x1="20.7475" y1="-3.41756" x2="47.3969" y2="14.704" gradientUnits="userSpaceOnUse">
<stop stop-color="#F03A2B"/>
<stop offset="1" stop-color="#FCC009"/>
</linearGradient>
<clipPath id="clip0_32_1424">
<rect width="70" height="70" fill="white"/>
</clipPath>
</defs>
</svg>
