<svg width="70" height="70" viewBox="0 0 70 70" fill="none" xmlns="http://www.w3.org/2000/svg">
<g clip-path="url(#clip0_17_140)">
<path d="M4.16992 10.9921C2.59766 11.4979 1.27148 12.6601 0.519531 14.1776L0.0683593 15.1073L0.0273436 23.6933C-1.2666e-07 29.2577 0.0410155 32.5526 0.136719 33.0585C0.451172 34.7538 1.68164 36.3124 3.34961 37.119C4.12891 37.5018 4.55274 37.5975 5.6875 37.7069C7.31446 37.8573 8.18946 38.2265 8.76367 39.0058C9.32422 39.7714 9.625 40.7831 9.5293 41.6171C9.46094 42.328 8.42188 47.1952 6.61719 55.1933C6.05664 57.6952 5.60547 59.9647 5.60547 60.2518C5.60547 60.9628 5.86524 61.414 6.42578 61.7011C6.86328 61.9198 7.47852 61.9335 14.6973 61.9061C22.2715 61.8651 22.5039 61.8515 22.9688 61.578C24.0215 60.9628 24.3223 59.869 23.7891 58.6796C23.6387 58.3515 22.9961 57.5175 22.3535 56.8339C20.3438 54.6737 20.2754 54.2772 21.3828 50.7909L22.1211 48.4667L23.5977 48.3983C25.2383 48.33 25.6895 48.1659 26.291 47.4413C26.4961 47.2089 26.7149 46.7987 26.7969 46.5116C26.9746 45.8417 26.9746 42.9979 26.7832 42.3143C26.6328 41.7811 25.7168 40.7147 25.293 40.578C24.7871 40.414 26.5918 38.746 27.959 38.1171C28.6016 37.83 28.8887 37.8026 32.1289 37.7206C35.5606 37.6386 35.6289 37.6386 36.7774 37.2284C40.3184 35.9706 44.0918 34.0839 45.2129 33.0175L45.8008 32.4433L45.7734 24.1308L45.7324 15.8319L45.2539 15.4218C44.0645 14.4237 40.6465 12.6874 37.4609 11.4706L35.8887 10.869L20.3027 10.8417C7.95703 10.828 4.60742 10.8554 4.16992 10.9921Z" fill="white"/>
<g filter="url(#filter0_d_17_140)">
<path d="M50.3262 16.3379C49.6289 16.5566 49.1504 16.9668 48.7949 17.6777C48.5352 18.1699 48.5352 18.4844 48.5625 24.377L48.6035 30.5703L48.9316 31.0625C49.1094 31.3223 49.4785 31.6914 49.7383 31.8691C50.2168 32.1973 50.2852 32.1973 53.5527 32.2383L56.875 32.2793L57.5996 31.8965C58.666 31.3223 61.0859 28.8477 61.5918 27.7949L62.002 26.9473L65.0098 26.9062C68.0039 26.8652 68.0176 26.8652 68.6602 26.4961C69.125 26.209 69.3848 25.9355 69.6445 25.4023C70.1641 24.3633 70.0684 23.3926 69.3574 22.5586C68.6192 21.6699 68.291 21.6016 64.9688 21.6016H61.9746L61.7285 20.9727C61.209 19.5918 58.8574 17.1719 57.3535 16.4609C56.6973 16.1465 56.5469 16.1328 53.7988 16.1465C51.7754 16.1465 50.75 16.2012 50.3262 16.3379Z" fill="url(#paint0_linear_17_140)"/>
</g>
</g>
<defs>
<filter id="filter0_d_17_140" x="32.5508" y="0.143066" width="61.4228" height="56.1362" filterUnits="userSpaceOnUse" color-interpolation-filters="sRGB">
<feFlood flood-opacity="0" result="BackgroundImageFix"/>
<feColorMatrix in="SourceAlpha" type="matrix" values="0 0 0 0 0 0 0 0 0 0 0 0 0 0 0 0 0 0 127 0" result="hardAlpha"/>
<feOffset dx="4" dy="4"/>
<feGaussianBlur stdDeviation="10"/>
<feComposite in2="hardAlpha" operator="out"/>
<feColorMatrix type="matrix" values="0 0 0 0 0.141176 0 0 0 0 0.203922 0 0 0 0 0.411765 0 0 0 0.03 0"/>
<feBlend mode="normal" in2="BackgroundImageFix" result="effect1_dropShadow_17_140"/>
<feBlend mode="normal" in="SourceGraphic" in2="effect1_dropShadow_17_140" result="shape"/>
</filter>
<linearGradient id="paint0_linear_17_140" x1="57.0782" y1="35.6127" x2="69.7437" y2="20.4066" gradientUnits="userSpaceOnUse">
<stop stop-color="#F03A2B"/>
<stop offset="1" stop-color="#FCC009"/>
</linearGradient>
<clipPath id="clip0_17_140">
<rect width="70" height="70" fill="white"/>
</clipPath>
</defs>
</svg>
