<svg width="30" height="30" viewBox="0 0 30 30" fill="none" xmlns="http://www.w3.org/2000/svg">
<path d="M15.9375 2.8125C15.9375 2.06658 16.2338 1.35121 16.7613 0.823762C17.2887 0.296316 18.0041 0 18.75 0L26.25 0C27.2446 0 28.1984 0.395088 28.9016 1.09835C29.6049 1.80161 30 2.75544 30 3.75V26.25C30 27.2446 29.6049 28.1984 28.9016 28.9016C28.1984 29.6049 27.2446 30 26.25 30H3.75C2.75544 30 1.80161 29.6049 1.09835 28.9016C0.395088 28.1984 0 27.2446 0 26.25V3.75C0 2.75544 0.395088 1.80161 1.09835 1.09835C1.80161 0.395088 2.75544 0 3.75 0L15 0C14.4113 0.78375 14.0625 1.75687 14.0625 2.8125V17.4244L9.10125 12.4613C9.01408 12.3741 8.91061 12.3049 8.79672 12.2578C8.68283 12.2106 8.56077 12.1863 8.4375 12.1863C8.31423 12.1863 8.19217 12.2106 8.07828 12.2578C7.96439 12.3049 7.86091 12.3741 7.77375 12.4613C7.68658 12.5484 7.61744 12.6519 7.57027 12.7658C7.5231 12.8797 7.49882 13.0017 7.49882 13.125C7.49882 13.2483 7.5231 13.3703 7.57027 13.4842C7.61744 13.5981 7.68658 13.7016 7.77375 13.7887L14.3363 20.3512C14.4233 20.4386 14.5268 20.5078 14.6407 20.5551C14.7546 20.6023 14.8767 20.6267 15 20.6267C15.1233 20.6267 15.2454 20.6023 15.3593 20.5551C15.4732 20.5078 15.5767 20.4386 15.6637 20.3512L22.2262 13.7887C22.4023 13.6127 22.5012 13.374 22.5012 13.125C22.5012 12.876 22.4023 12.6373 22.2262 12.4613C22.0502 12.2852 21.8115 12.1863 21.5625 12.1863C21.3135 12.1863 21.0748 12.2852 20.8988 12.4613L15.9375 17.4244V2.8125Z" fill="white"/>
</svg>
