<svg width="16" height="14" viewBox="0 0 16 14" fill="none" xmlns="http://www.w3.org/2000/svg">
<path d="M1.01309 6.28105L4.46166 7.56696L5.80601 11.8923C5.86446 12.1845 6.21516 12.243 6.44896 12.0676L8.37781 10.4895C8.55316 10.3141 8.84542 10.3141 9.07922 10.4895L12.5278 13.0028C12.7616 13.1782 13.1123 13.0613 13.1707 12.769L15.7425 0.49448C15.801 0.202229 15.5087 -0.0900192 15.2165 0.0268812L1.01309 5.5212C0.662386 5.6381 0.662386 6.16415 1.01309 6.28105ZM5.63066 6.924L12.4109 2.77404C12.5278 2.71559 12.6447 2.89094 12.5278 2.94939L6.97501 8.15146C6.79966 8.32681 6.62431 8.56061 6.62431 8.85286L6.44896 10.2557C6.44896 10.431 6.15671 10.4895 6.09826 10.2557L5.39685 7.68385C5.2215 7.3916 5.33841 7.0409 5.63066 6.924Z" fill="#243469"/>
</svg>
