<svg width="409" height="451" viewBox="0 0 409 451" fill="none" xmlns="http://www.w3.org/2000/svg">
<mask id="mask0_18_380" style="mask-type:alpha" maskUnits="userSpaceOnUse" x="0" y="0" width="409" height="451">
<path d="M0 20C0 8.95429 8.95431 0 20 0H409V430.668C409 441.713 400.046 450.668 389 450.668H0V20Z" fill="#243469"/>
</mask>
<g mask="url(#mask0_18_380)">
<path d="M140.544 152.353L140.451 157.99C140.746 169.26 143.767 196.422 163.58 230.087C176.436 250.059 192.699 268.162 209.311 284.26C215.493 290.249 221.982 295.757 227.847 301.747L227.99 301.88C227.967 301.86 227.945 301.842 227.921 301.824C234.596 308.651 240.454 316.113 244.077 325.666C254.997 354.455 245.749 386.434 224.676 407.312C222.482 409.485 217.578 412.139 216.083 414.774C240.652 371.465 209.711 332.304 209.711 332.304C209.711 332.304 111.42 221.212 140.544 152.353" fill="url(#paint0_linear_18_380)"/>
<path d="M178.538 106.792C181.548 64.2777 208.846 14.7131 250.038 -1.09705C250.038 -1.09705 242.08 9.3195 235.738 29.5332C234.981 32.3456 234.265 35.1002 233.535 37.7065C233.034 39.4878 232.575 41.2801 232.149 43.0799C230.736 49.5389 229.575 56.6829 228.854 64.5133C228.373 71.0914 228.364 77.7046 228.847 84.2885C231.196 116.226 241.028 147.085 253.981 176.157C266.572 204.419 285.811 230.208 295.673 259.514C316.219 320.565 286.41 391.944 225.314 414.78C241.057 406.871 254.011 394.162 262.301 378.551C282.326 339.955 262.547 307.157 240.718 275.944C232.576 264.303 224.149 252.882 217.396 241.463C217.346 241.378 217.296 241.293 217.245 241.208C193.176 200.4 175.116 155.121 178.538 106.792" fill="url(#paint1_linear_18_380)"/>
<path d="M34.9023 68.7401L206.218 15.5163C200.416 21.7633 195.028 28.7881 190.151 36.5599C185.421 44.0994 181.343 52.0825 177.961 60.2927L71.1604 93.4738C71.1604 93.4738 53.3995 172.401 90.4462 259.049C90.4462 259.053 90.4462 259.057 90.4454 259.06C91.0603 248.722 92.3092 242.328 92.3092 242.328C97.7695 258.854 114.151 265.28 114.151 265.28C102.02 206.383 128.417 167.247 137.567 155.823L137.567 155.822C139.399 153.535 140.544 152.353 140.544 152.353C117.673 206.427 173.379 286.549 198.352 318.459C218.658 344.404 218.904 381.102 198.721 407.145C198.397 407.563 198.096 407.942 197.821 408.281C197.821 408.281 182.291 427.622 157.993 407.775C-9.35385 265.435 34.9023 68.7401 34.9023 68.7401" fill="url(#paint2_linear_18_380)"/>
<path d="M225.313 414.775L225.176 414.797L229.827 412.965C287.862 388.371 315.705 319.036 295.673 259.509C288.159 237.179 275.815 218.732 265.003 198.257C258.213 185.399 254.685 175.494 252.93 168.1L252.929 168.104C248.877 153.486 253.037 139.089 258.343 128.183C263.82 116.219 270.686 109.201 270.686 109.202C266.707 131.462 268.613 155.512 279.038 175.802C290.399 197.913 311.541 214.291 325.271 235.075C330.797 243.441 333.205 251.801 336.226 261.067C340.746 251.848 339.944 240.221 336.891 230.71C343.213 238.144 347.007 246.805 349.198 255.419C384.23 170.209 366.963 93.4731 366.963 93.4731L241.812 54.5915C242.29 51.5846 242.838 48.6121 243.473 45.7007C243.867 44.0409 244.285 42.4229 244.715 40.8906C245.225 39.074 245.728 37.1853 246.241 35.2547L246.889 32.8287C248.244 28.5384 249.675 24.7518 251.064 21.4682L403.221 68.7393C403.221 68.7393 457.447 309.643 219.061 451.173C201.658 426.52 225.313 414.775 225.313 414.775" fill="url(#paint3_linear_18_380)"/>
</g>
<defs>
<linearGradient id="paint0_linear_18_380" x1="248.693" y1="283.563" x2="135.15" y2="283.563" gradientUnits="userSpaceOnUse">
<stop stop-color="#51ADE5"/>
<stop offset="0.0215054" stop-color="#51ADE5"/>
<stop offset="1" stop-color="#2C3892"/>
</linearGradient>
<linearGradient id="paint1_linear_18_380" x1="240.127" y1="506.308" x2="240.127" y2="136.433" gradientUnits="userSpaceOnUse">
<stop stop-color="#EB1F38"/>
<stop offset="0.0215054" stop-color="#EB1F38"/>
<stop offset="0.543011" stop-color="#F14624"/>
<stop offset="0.998398" stop-color="#FBC008"/>
<stop offset="1" stop-color="#FBC008"/>
</linearGradient>
<linearGradient id="paint2_linear_18_380" x1="213.721" y1="216.123" x2="29.6066" y2="216.123" gradientUnits="userSpaceOnUse">
<stop stop-color="#51ADE5"/>
<stop offset="0.0215054" stop-color="#51ADE5"/>
<stop offset="1" stop-color="#2C3892"/>
</linearGradient>
<linearGradient id="paint3_linear_18_380" x1="516.2" y1="236.321" x2="257.047" y2="236.321" gradientUnits="userSpaceOnUse">
<stop stop-color="#EB1F38"/>
<stop offset="0.0215054" stop-color="#EB1F38"/>
<stop offset="0.543011" stop-color="#F14624"/>
<stop offset="0.998398" stop-color="#FBC008"/>
<stop offset="1" stop-color="#FBC008"/>
</linearGradient>
</defs>
</svg>
