<svg width="17" height="18" viewBox="0 0 17 18" fill="none" xmlns="http://www.w3.org/2000/svg">
<path d="M12.7957 0.909435C9.93702 0.363522 6.96843 0.363522 4.10979 0.909435C2.84539 1.18239 1.25115 2.71095 0.976283 3.91196C0.481518 6.25939 0.481518 8.66141 0.976283 11.0088C1.30613 12.2098 2.90037 13.7384 4.10979 14.0114C4.16476 14.0114 4.21974 14.066 4.21974 14.1205V17.5598C4.21974 17.7236 4.43963 17.8328 4.54958 17.669L6.1988 15.9767C6.1988 15.9767 7.51817 14.6119 7.73806 14.3935C7.73806 14.3935 7.79304 14.3389 7.84801 14.3389C9.49723 14.3935 11.2014 14.2297 12.8506 13.9568C14.115 13.6838 15.7093 12.1553 15.9841 10.9542C16.4789 8.60682 16.4789 6.2048 15.9841 3.85737C15.6543 2.71095 14.0601 1.18239 12.7957 0.909435ZM12.8506 11.1726C12.5758 11.7185 12.2459 12.1553 11.6962 12.4282C11.5313 12.4828 11.3663 12.5374 11.2014 12.592C10.9815 12.5374 10.8166 12.4828 10.6517 12.4282C8.89251 11.7185 7.2433 10.7359 5.92393 9.31651C5.20927 8.49764 4.60455 7.56958 4.10979 6.58694C3.88989 6.09562 3.67 5.65888 3.50508 5.16756C3.34016 4.73083 3.61502 4.2941 3.88989 3.96655C4.16476 3.639 4.49461 3.42064 4.87942 3.25686C5.15429 3.09309 5.42916 3.20227 5.64906 3.42064C6.08885 3.96655 6.52864 4.51247 6.85848 5.11297C7.07838 5.49511 7.0234 5.93184 6.63859 6.2048C6.52864 6.25939 6.47366 6.31398 6.36372 6.42316C6.30874 6.47776 6.19879 6.53235 6.14382 6.64153C6.03387 6.8053 6.03387 6.96908 6.08885 7.13285C6.52864 8.38845 7.35325 9.3711 8.61764 9.91701C8.83754 10.0262 9.00246 10.0808 9.27733 10.0808C9.66215 10.0262 9.82707 9.58946 10.1019 9.3711C10.3768 9.15273 10.7066 9.15273 11.0365 9.31651C11.3114 9.48028 11.5862 9.69864 11.9161 9.91701C12.1909 10.1354 12.4658 10.2992 12.7407 10.5175C12.9056 10.6267 12.9606 10.8997 12.8506 11.1726ZM10.5417 7.07826C10.4318 7.07826 10.4868 7.07826 10.5417 7.07826C10.3218 7.07826 10.2669 6.96908 10.2119 6.8053C10.2119 6.69612 10.2119 6.53235 10.1569 6.42316C10.1019 6.2048 9.99199 5.98643 9.7721 5.82266C9.66215 5.76807 9.5522 5.71348 9.44225 5.65888C9.27733 5.60429 9.16738 5.60429 9.00246 5.60429C8.83754 5.5497 8.78257 5.44052 8.78257 5.27674C8.78257 5.16756 8.94749 5.05838 9.05744 5.05838C9.93702 5.11297 10.5967 5.60429 10.7067 6.64153C10.7067 6.69612 10.7067 6.8053 10.7067 6.85989C10.7067 6.96908 10.6517 7.07826 10.5417 7.07826ZM9.99199 4.67624C9.71712 4.56706 9.44225 4.45787 9.11241 4.40328C9.00246 4.40328 8.83754 4.34869 8.72759 4.34869C8.56267 4.34869 8.45272 4.23951 8.5077 4.07573C8.5077 3.91196 8.61765 3.80278 8.78257 3.85737C9.3323 3.91196 9.82707 4.02114 10.3218 4.23951C11.3114 4.73083 11.8611 5.5497 12.026 6.64153C12.026 6.69612 12.026 6.75071 12.026 6.8053C12.026 6.91449 12.026 7.02367 12.026 7.18744C12.026 7.24203 12.026 7.29663 12.026 7.35122C11.971 7.56958 11.5862 7.62417 11.5313 7.35122C11.5313 7.29663 11.4763 7.18744 11.4763 7.13285C11.4763 6.64153 11.3663 6.15021 11.1464 5.71348C10.8166 5.22215 10.4318 4.89461 9.99199 4.67624ZM12.9606 7.95172C12.7957 7.95172 12.6857 7.78795 12.6857 7.62417C12.6857 7.29663 12.6307 6.96908 12.5758 6.64153C12.3559 4.8946 10.9265 3.47523 9.22236 3.20227C8.94749 3.14768 8.67262 3.14768 8.45272 3.09309C8.2878 3.09309 8.06791 3.09309 8.01293 2.87472C7.95796 2.71095 8.12288 2.54718 8.2878 2.54718C8.34278 2.54718 8.39775 2.54718 8.39775 2.54718C10.6517 2.60177 8.5077 2.54718 8.39775 2.54718C10.7067 2.60177 12.6307 4.13033 13.0156 6.42316C13.0705 6.8053 13.1255 7.18744 13.1255 7.62417C13.2354 7.78795 13.1255 7.95172 12.9606 7.95172Z" fill="#243469"/>
</svg>
