<svg width="40" height="40" viewBox="0 0 40 40" fill="none" xmlns="http://www.w3.org/2000/svg">
<path d="M10.6172 0.1875C8.75781 0.515625 7.40625 0.929688 7.28125 1.21094C7.09375 1.63281 7.34375 1.92969 8.1875 2.28125L8.64062 2.47656L7.96875 2.6875C7.42969 2.85156 7.27344 2.9375 7.20312 3.09375C7.03125 3.46875 7.19531 3.67969 7.91406 4.03906L8.5625 4.35938L7.96094 4.54688C7.24219 4.75781 6.98438 5.00781 7.10938 5.36719C7.16406 5.53906 7.32812 5.65625 7.84375 5.91406L8.50781 6.23438L8.03906 6.36719C7.39062 6.55469 7.14844 6.69531 7.0625 6.92188C6.91406 7.3125 7.13281 7.52344 8.15625 7.95312L8.5 8.10156L7.92188 8.27344C7.11719 8.51562 6.98438 8.60938 6.98438 8.94531C6.98438 9.22656 7.20312 9.53125 7.40625 9.53125C7.46094 9.53125 7.73438 9.63281 8.00781 9.75781C8.38281 9.92969 8.46094 9.99219 8.34375 10.0234C8.26562 10.0469 7.9375 10.1406 7.63281 10.2344C7.01562 10.4141 6.86719 10.5625 6.92188 10.9453L6.96094 11.1719H4.97656H3V12.0703V12.9688H4.36719H5.73438V24.6875V36.4062H5.26562H4.79688V37.3047V38.2031H3.89844H3V39.1016V40H20.5781H38.1562V39.1016V38.2031H37.2578H36.3594V37.3047V36.4062H35.9297H35.5V24.6875V12.9688H36.8281H38.1562V12.0703V11.1719L34.6641 11.1562L31.1641 11.1328L31.8672 10.9609C32.5234 10.8047 33.5547 10.6172 34.4297 10.5078C34.8906 10.4453 35.1094 10.25 35.1094 9.89844C35.1094 9.46875 34.9531 9.39844 33.8984 9.35156C32.8984 9.30469 32.0156 9.15625 32.1172 9.05469C32.1875 8.98438 33.5859 8.73438 34.4297 8.63281C34.9609 8.57031 35.1875 8.39844 35.1875 8.04688C35.1875 7.59375 34.9844 7.5 34.0234 7.5C33.3047 7.5 32.1094 7.34375 32 7.23438C31.9531 7.17969 33.0156 6.96094 34.0156 6.82031C35.0781 6.67188 35.2656 6.57812 35.2656 6.17969C35.2656 5.8125 34.9453 5.60938 34.4531 5.66406C34.0078 5.71875 32.9062 5.60156 32.375 5.44531L32.0234 5.33594L32.5703 5.21094C32.875 5.14062 33.5547 5.02344 34.0859 4.94531C35.1484 4.80469 35.3438 4.70312 35.3438 4.3125C35.3438 3.89062 35.1172 3.78906 34.1562 3.77344C33.2266 3.76562 32.0234 3.54688 32.2344 3.42969C32.375 3.35156 33.8672 3.07812 34.5938 3.00781C35.2031 2.9375 35.4219 2.78906 35.4219 2.42969C35.4219 2.27344 35.3516 2.14844 35.2109 2.03125C35.0234 1.89062 34.9375 1.875 34.5234 1.91406C34.0234 1.96875 33.0078 1.85938 32.4453 1.6875L32.1016 1.58594L32.6719 1.46094C32.9844 1.38281 33.6328 1.27344 34.1172 1.20312C35.1641 1.0625 35.3203 1 35.4219 0.734375C35.5234 0.46875 35.4609 0.265625 35.2188 0.109375C35.0547 -0.0078125 34.9375 -0.0078125 34.2656 0.078125C32.6484 0.273438 30.4375 0.835938 30.1328 1.11719C29.7266 1.48438 30 1.92188 30.8438 2.27344C31.0859 2.36719 31.2812 2.46875 31.2812 2.49219C31.2812 2.52344 31.0469 2.60938 30.7578 2.6875C30.1484 2.85938 29.875 3.0625 29.875 3.35938C29.875 3.64062 30.1406 3.86719 30.7656 4.13281C31.0625 4.25781 31.2656 4.375 31.2344 4.39062C31.1953 4.41406 30.9062 4.50781 30.6016 4.60156C29.9688 4.78906 29.7422 5.00781 29.8281 5.34375C29.8828 5.57812 30.1562 5.77344 30.7734 6.04688C31.1406 6.20312 31.2109 6.25781 31.0859 6.28906C30.2188 6.54688 29.9062 6.69531 29.8125 6.89062C29.6406 7.26562 29.7969 7.47656 30.5 7.79688C30.8438 7.95312 31.125 8.10156 31.125 8.125C31.125 8.14844 30.8438 8.25 30.4922 8.35156C29.9844 8.50781 29.8438 8.57812 29.75 8.75781C29.5781 9.09375 29.7578 9.44531 30.1484 9.55469C30.5703 9.67188 31.2266 9.99219 31.125 10.0312C31.0625 10.0547 30.7891 10.1328 30.5156 10.2031C29.8672 10.375 29.6406 10.5625 29.6406 10.9062V11.1719L26.6172 11.1641L23.5859 11.1562L24.1328 11.0078C24.7266 10.8438 26.1328 10.5859 26.8438 10.5078C27.2031 10.4688 27.3281 10.4141 27.4531 10.2578C27.6484 10.0078 27.6562 9.75781 27.4688 9.53125C27.3438 9.38281 27.25 9.35938 26.4375 9.34375C25.5625 9.32031 24.5625 9.17188 24.5625 9.07031C24.5625 8.99219 26.75 8.60156 27.2031 8.59375C27.375 8.59375 27.6875 8.21875 27.6875 8.02344C27.6875 7.92188 27.6094 7.76562 27.5156 7.67969C27.3594 7.53906 27.2031 7.51562 26.2812 7.47656C25.7031 7.45312 25.0547 7.38281 24.8359 7.32031L24.4453 7.21094L24.7578 7.125C25.1406 7.01562 26.3125 6.82031 26.9688 6.75C27.3594 6.71094 27.4922 6.65625 27.6094 6.5C27.8125 6.24219 27.8047 6.04688 27.5859 5.82812C27.4219 5.66406 27.3359 5.64844 26.5469 5.64062C25.8359 5.64062 24.6172 5.46875 24.5 5.35938C24.4453 5.30469 25.5391 5.07812 26.5156 4.94531C27.3203 4.83594 27.5234 4.78125 27.6641 4.64062C27.8984 4.40625 27.8906 4.17969 27.6484 3.94531C27.4688 3.75781 27.4062 3.75 26.5391 3.74219C25.5859 3.73438 24.3594 3.52344 24.6797 3.41406C24.9688 3.32812 26.4766 3.05469 27.0234 3C27.6719 2.92969 27.9688 2.71094 27.8828 2.35938C27.7891 1.95312 27.6797 1.91406 26.6875 1.90625C25.7266 1.89062 24.5156 1.67969 24.7266 1.5625C24.875 1.47656 26.3516 1.19531 27.0078 1.13281C27.6406 1.0625 27.9219 0.882812 27.9219 0.539062C27.9219 0.414062 27.8516 0.242188 27.7578 0.148438C27.6094 0 27.5312 -0.015625 27.0703 0.03125C25.8906 0.140625 23.8906 0.570312 22.9609 0.914062C22.5 1.08594 22.3281 1.34375 22.4531 1.67188C22.5078 1.82812 22.7031 1.96094 23.1641 2.1875C23.5156 2.35938 23.7578 2.51562 23.6953 2.53125C23.6328 2.54688 23.3906 2.625 23.1562 2.69531C22.5391 2.89062 22.375 3.00781 22.375 3.27344C22.375 3.67188 22.4609 3.76562 23.1016 4.0625C23.4375 4.22656 23.6875 4.375 23.6562 4.39844C23.6172 4.42188 23.3281 4.51562 23.0234 4.60156C22.4297 4.78125 22.2969 4.90625 22.2969 5.26562C22.2969 5.53906 22.5391 5.73438 23.1875 6.00781C23.5156 6.14062 23.6953 6.25781 23.625 6.28125C23.5625 6.30469 23.2969 6.38281 23.0391 6.45312C22.4922 6.60156 22.2188 6.82031 22.2188 7.10938C22.2188 7.38281 22.375 7.51562 23.0703 7.83594C23.3906 7.98438 23.6172 8.125 23.5781 8.14062C23.5391 8.16406 23.2578 8.25781 22.9453 8.35156C22.3672 8.52344 22.1406 8.71094 22.1406 9.02344C22.1406 9.19531 22.4375 9.53125 22.5859 9.53125C22.7734 9.53125 23.6562 9.99219 23.5469 10.0312C23.4844 10.0547 23.1719 10.1484 22.8594 10.2422C22.2266 10.4297 22.0078 10.6328 22.0938 10.9766L22.1406 11.1719L19.0781 11.1641L16.0078 11.1562L16.9062 10.9297C17.3984 10.8125 18.2109 10.6562 18.7031 10.5859C19.1953 10.5156 19.6641 10.4375 19.7422 10.4219C19.9297 10.3594 20.125 9.96094 20.0625 9.72656C19.9844 9.39844 19.8438 9.35156 18.9141 9.33594C18.0703 9.32031 17.0938 9.17969 17.0234 9.0625C16.9922 9.00781 18.4688 8.71875 19.25 8.63281C19.8672 8.5625 19.9453 8.53125 20.0703 8.28125C20.1953 8.03906 20.1406 7.76562 19.9453 7.60156C19.8828 7.55469 19.3594 7.5 18.7812 7.47656C17.7656 7.4375 16.8594 7.27344 17.0312 7.16406C17.1328 7.10156 18.7109 6.82812 19.3672 6.75C20.0078 6.67969 20.1875 6.5625 20.1875 6.17969C20.1875 5.71875 20.0781 5.67188 18.8672 5.61719C17.75 5.57031 16.875 5.42188 17.0703 5.3125C17.2422 5.21875 18.2734 5.02344 19.1641 4.91406C20.0625 4.80469 20.2656 4.69531 20.2656 4.3125C20.2656 3.84375 20.1562 3.79688 18.9219 3.73438C17.8516 3.67969 16.8906 3.50781 17.1406 3.41406C17.3594 3.32812 18.9375 3.04688 19.5 2.99219C19.8828 2.96094 20.1016 2.89844 20.2031 2.79688C20.3984 2.60156 20.3828 2.23438 20.1719 2.03125C20.0234 1.89062 19.9219 1.86719 19.5625 1.89844C18.7891 1.96094 17.0391 1.71094 17.1953 1.5625C17.2812 1.47656 18.75 1.19531 19.4766 1.125C20.125 1.0625 20.4219 0.875 20.4219 0.523438C20.4219 0.265625 20.1094 0 19.8125 0C18.7031 0 15.4219 0.765625 15.0547 1.11719C14.6562 1.47656 14.9531 1.92188 15.8203 2.27344L16.3203 2.48438L15.7031 2.66406C14.9766 2.88281 14.7188 3.13281 14.8438 3.49219C14.8984 3.66406 15.0703 3.78906 15.5781 4.03906C15.9453 4.22656 16.2266 4.375 16.2031 4.375C16.1797 4.375 15.8828 4.47656 15.5391 4.59375C15.0469 4.75781 14.8906 4.85156 14.8125 5.01562C14.6406 5.39062 14.7969 5.59375 15.5156 5.9375C15.8906 6.10938 16.1172 6.25781 16.0469 6.28125C15.9844 6.29688 15.7344 6.375 15.5 6.44531C14.8828 6.64062 14.7188 6.75781 14.7188 7.02344C14.7188 7.14844 14.7422 7.3125 14.7656 7.38281C14.8047 7.48438 15.6484 7.9375 16.0469 8.0625C16.1094 8.07812 15.8438 8.20312 15.4609 8.32812C14.8594 8.52344 14.75 8.58594 14.6875 8.76562C14.5391 9.1875 14.6875 9.375 15.4219 9.66406C15.7812 9.8125 16.0938 9.94531 16.1094 9.95312C16.1172 9.96875 15.8359 10.0703 15.4766 10.1797C14.7266 10.4141 14.5312 10.5859 14.5781 10.9375L14.6172 11.1719L11.4844 11.1641C8.65625 11.1641 8.38281 11.1484 8.70312 11.0469C9.14062 10.9141 10.8438 10.5781 11.4766 10.5078C12.1484 10.4375 12.2188 10.4062 12.3438 10.1172C12.4609 9.83594 12.3984 9.52344 12.2031 9.40625C12.1484 9.36719 11.7188 9.33594 11.2422 9.32812C10.4062 9.3125 9.4375 9.17969 9.36719 9.0625C9.32812 9 10.2656 8.80469 11.4141 8.64062C12.2422 8.52344 12.4531 8.39844 12.4531 8.00781C12.4531 7.59375 12.2734 7.5 11.4297 7.5C10.6953 7.5 9.32812 7.29688 9.32812 7.19531C9.32812 7.125 10.9453 6.82031 11.7031 6.75C12.3125 6.6875 12.5312 6.53906 12.5312 6.1875C12.5312 5.71875 12.4219 5.67188 11.1875 5.60938C10.1172 5.55469 9.15625 5.38281 9.40625 5.28906C9.60156 5.21094 11.1328 4.9375 11.6953 4.88281C12.3125 4.8125 12.6094 4.63281 12.6094 4.30469C12.6094 3.84375 12.4922 3.79688 11.2656 3.73438C10.2031 3.6875 9.28125 3.52344 9.45312 3.42188C9.57812 3.33594 11.1719 3.05469 11.7734 3C12.4141 2.9375 12.6875 2.76562 12.6875 2.41406C12.6875 1.98438 12.4766 1.89844 11.2969 1.85156C10.2656 1.8125 9.48438 1.6875 9.48438 1.57031C9.48438 1.5 10.5156 1.29688 11.6719 1.13281C12.3359 1.04688 12.5156 0.992188 12.6328 0.851562C12.8047 0.632812 12.8047 0.460938 12.6016 0.203125C12.4609 0.03125 12.3828 0 12.0391 0.0078125C11.8125 0.0078125 11.1797 0.09375 10.6172 0.1875ZM24.2969 19.9688L21.8281 24.0234L24.5938 24.0625L27.3594 24.1016L20.8672 29.0391C17.2891 31.75 14.3594 33.9609 14.3438 33.9453C14.3281 33.9375 15.4297 32.1016 16.7812 29.875L19.2422 25.8203L16.4844 25.7812L13.7266 25.7422L18.0703 22.4453C20.4609 20.625 23.3828 18.4062 24.5625 17.5078C25.7422 16.6094 26.7188 15.8828 26.7344 15.8984C26.75 15.9062 25.6484 17.7422 24.2969 19.9688Z" fill="url(#paint0_linear_71_456)"/>
<defs>
<linearGradient id="paint0_linear_71_456" x1="0.57543" y1="45" x2="88.355" y2="2.36937" gradientUnits="userSpaceOnUse">
<stop stop-color="#F03A2B"/>
<stop offset="1" stop-color="#FCC009"/>
</linearGradient>
</defs>
</svg>
