<svg width="40" height="40" viewBox="0 0 40 40" fill="none" xmlns="http://www.w3.org/2000/svg">
<path d="M19.1105 1.90477C16.8376 2.26162 14.9447 3.63472 13.9362 5.67498L13.6259 6.30335L13.3389 6.24129C13.1837 6.2025 12.7105 6.17147 12.2761 6.17147C10.7013 6.17147 9.4833 6.67572 8.31966 7.83936C7.71456 8.42894 7.55941 8.64616 7.2491 9.27453C6.82243 10.1434 6.65952 10.8338 6.65952 11.8035V12.5095L5.93031 12.556C3.79695 12.6801 1.34162 14.0463 0.620163 16.0943C0.348645 16.8545 0.286584 18.057 0.480525 18.9026C0.736527 20.0584 1.41144 21.129 2.38115 21.9048L2.8572 22.381L2.85734 20.9524C2.85734 19.0476 2.85734 19.5238 2.85734 19.0476C2.8572 18.5714 3.33339 18.0952 3.80958 18.0952C4.28578 18.0952 5.38608 18.0952 9.04769 18.0952C12.8567 18.0952 12.381 18.0952 13.3334 18.0952C14.2858 18.0952 14.2858 19.0476 14.2858 19.0476C14.2858 19.0476 14.2858 18.0952 15.2382 18.0952C16.1905 18.0952 16.1905 18.0952 16.1905 18.0952C16.6667 18.0952 16.2997 18.0952 20.0001 18.0952C23.7294 18.0722 24.2858 18.0952 24.762 18.0952C25.2382 18.0952 25.7144 18.5714 25.7144 19.0476C25.7144 18.5714 26.1905 18.0952 26.6667 18.0952C27.1429 18.0952 27.6191 18.0952 28.5715 18.0952C29.0477 18.0952 29.5239 18.0952 31.1349 18.1182C34.7965 18.1182 35.7144 18.0952 36.1905 18.0952C36.6667 18.0952 37.1429 18.5714 37.1429 19.0476C37.1429 19.5238 37.1041 19.7034 37.1429 20.9524L37.1817 22.3332L37.6472 21.9764C38.5936 21.2394 38.7917 20.0809 39.0477 18.925C39.2416 18.0872 39.1796 16.8848 38.908 16.1168C38.2021 14.0843 36.3635 12.6801 34.2379 12.556L33.5165 12.5095L33.4855 11.5708C33.4544 10.8183 33.4079 10.508 33.2372 10.0115C32.6709 8.35137 31.3211 6.99378 29.692 6.44299C29.1644 6.26456 28.8697 6.21802 28.1094 6.19475C27.5974 6.17147 27.0311 6.19474 26.8604 6.23353L26.5424 6.30335L26.1778 5.58965C25.2624 3.78212 23.6177 2.49435 21.624 2.02113C20.9879 1.87374 19.7156 1.81168 19.1105 1.90477Z" fill="url(#paint0_linear_71_472)"/>
<path fill-rule="evenodd" clip-rule="evenodd" d="M4.00005 38H6.71807C6.88478 38.604 7.43823 39.0476 8.09528 39.0476C8.75234 39.0476 9.30579 38.604 9.4725 38H18.1466C18.3134 38.604 18.8668 39.0476 19.5239 39.0476C20.1809 39.0476 20.7344 38.604 20.9011 38H29.5753C29.742 38.604 30.2955 39.0476 30.9525 39.0476C31.6096 39.0476 32.163 38.604 32.3298 38H38V37H32.2404C32.0812 36.6695 31.7987 36.4097 31.4524 36.2804V35.2381H35.1905C35.7428 35.2381 36.1905 34.7904 36.1905 34.2381V20.0476C36.1905 19.4953 35.7428 19.0476 35.1905 19.0476H27.6667C27.1144 19.0476 26.6667 19.4953 26.6667 20.0476V34.2381C26.6667 34.7904 27.1144 35.2381 27.6667 35.2381H30.4524V36.2805C30.1063 36.4098 29.8238 36.6696 29.6647 37H20.8117C20.6526 36.6696 20.3701 36.4098 20.024 36.2805V35.2381H23.7618C24.3141 35.2381 24.7618 34.7904 24.7618 34.2381V20.0476C24.7618 19.4953 24.3141 19.0476 23.7618 19.0476H16.238C15.6858 19.0476 15.238 19.4953 15.238 20.0476V34.2381C15.238 34.7904 15.6858 35.2381 16.238 35.2381H19.024V36.2804C18.6777 36.4097 18.3952 36.6695 18.236 37H9.38313C9.224 36.6696 8.94146 36.4098 8.59528 36.2804V35.2381H12.3334C12.8857 35.2381 13.3334 34.7904 13.3334 34.2381V20.0476C13.3334 19.4953 12.8857 19.0476 12.3334 19.0476H4.80957C4.25729 19.0476 3.80957 19.4953 3.80957 20.0476V34.2381C3.80957 34.7904 4.25729 35.2381 4.80957 35.2381H7.59528V36.2804C7.24911 36.4098 6.96657 36.6696 6.80744 37H4.00005V38ZM10.4762 21.9048H6.66671V22.8571H10.4762V21.9048ZM5.71433 23.8095H11.4286V24.7619H5.71433V23.8095ZM21.9048 21.9048H18.0953V22.8571H21.9048V21.9048ZM17.1429 23.8095H22.8572V24.7619H17.1429V23.8095ZM33.3334 21.9048H29.5239V22.8571H33.3334V21.9048ZM28.5715 23.8095H34.2858V24.7619H28.5715V23.8095Z" fill="url(#paint1_linear_71_472)"/>
<defs>
<linearGradient id="paint0_linear_71_472" x1="-1.67932" y1="24.9333" x2="55.4513" y2="-33.9178" gradientUnits="userSpaceOnUse">
<stop stop-color="#F03A2B"/>
<stop offset="1" stop-color="#FCC009"/>
</linearGradient>
<linearGradient id="paint1_linear_71_472" x1="2.00564" y1="41.5991" x2="57.7189" y2="-10.1517" gradientUnits="userSpaceOnUse">
<stop stop-color="#F03A2B"/>
<stop offset="1" stop-color="#FCC009"/>
</linearGradient>
</defs>
</svg>
