<svg width="35" height="32" viewBox="0 0 35 32" fill="none" xmlns="http://www.w3.org/2000/svg">
<g filter="url(#filter0_d_9_137)">
<path fill-rule="evenodd" clip-rule="evenodd" d="M16.2 13.5024C16.14 13.5653 16.0299 13.6582 15.8799 13.7841C15.7299 13.91 15.58 14.0188 15.47 14.1127C15.36 14.2066 15.2 14.3165 15.03 14.4414C14.8704 14.5533 14.7033 14.6525 14.53 14.738C14.3678 14.8134 14.2007 14.8762 14.03 14.9258C13.8575 14.9773 13.6792 15.0035 13.5 15.0037C13.297 15.0017 13.0951 14.9701 12.9001 14.9098C12.6798 14.838 12.4683 14.7384 12.2701 14.6132C12.0601 14.4777 11.8802 14.3635 11.7402 14.2696C11.6002 14.1757 11.4302 14.0348 11.2002 13.8428C10.9702 13.6507 10.8502 13.5408 10.8102 13.4992C8.44036 11.6653 6.93709 10.4877 6.30046 9.96622C6.27288 9.94604 6.24079 9.93394 6.20745 9.93113C6.1741 9.92832 6.14074 9.9349 6.11053 9.95022C6.07747 9.96267 6.04889 9.98603 6.02911 10.0169C6.00933 10.0478 5.99928 10.0846 6.00043 10.122V16.4997C5.99963 16.6973 6.03563 16.8931 6.10626 17.0758C6.17688 17.2585 6.28077 17.4244 6.4119 17.564C6.54304 17.7035 6.69886 17.8139 6.87025 17.8887C7.04165 17.9636 7.2252 18.0014 7.41039 18H19.5998C19.7842 18 19.9667 17.9611 20.1369 17.8856C20.3071 17.8102 20.4618 17.6996 20.5918 17.5602C20.7219 17.4208 20.8249 17.2553 20.8949 17.0733C20.9649 16.8914 21.0004 16.6964 20.9996 16.4997V10.1316C21.0018 10.0934 20.9935 10.0553 20.9757 10.0219C20.958 9.9886 20.9316 9.96147 20.8997 9.94382C20.87 9.9231 20.8343 9.9148 20.7992 9.92051C20.7642 9.92622 20.7323 9.94554 20.7097 9.97476C20.0098 10.5584 18.4998 11.7364 16.2 13.5077V13.5024ZM14.0701 13.831C14.2592 13.739 14.443 13.6346 14.6201 13.5184C14.7534 13.4245 14.9534 13.2684 15.22 13.05C15.351 12.9278 15.4914 12.8179 15.6399 12.7213C18.0798 10.8248 19.7798 9.48072 20.7398 8.68898C20.8238 8.61865 20.8911 8.5282 20.9363 8.42495C20.9815 8.32169 21.0031 8.20853 20.9996 8.09464V7.5003C21.0004 7.30358 20.9649 7.10864 20.8949 6.92666C20.8249 6.74467 20.7219 6.57924 20.5918 6.43984C20.4618 6.30044 20.3071 6.18983 20.1369 6.11436C19.9667 6.03889 19.7842 6.00004 19.5998 6.00004H7.41039C7.2252 5.99862 7.04165 6.03643 6.87025 6.11127C6.69886 6.18612 6.54304 6.2965 6.4119 6.43604C6.28077 6.57558 6.17688 6.74149 6.10626 6.92418C6.03563 7.10686 5.99963 7.30268 6.00043 7.5003V8.09464C5.99655 8.20969 6.01916 8.32401 6.06622 8.42762C6.11328 8.53122 6.18339 8.62095 6.27043 8.68898C7.28038 9.52269 8.97704 10.8668 11.3603 12.7213C11.5112 12.819 11.6549 12.9289 11.7902 13.05C12.0501 13.2691 12.2501 13.4252 12.3901 13.5184C12.5649 13.6326 12.7452 13.7369 12.9301 13.831C13.1067 13.9304 13.3009 13.9889 13.5 14.0028C13.6996 13.9915 13.8944 13.9329 14.0701 13.831Z" fill="url(#paint0_linear_9_137)"/>
</g>
<defs>
<filter id="filter0_d_9_137" x="0" y="0" width="35" height="32" filterUnits="userSpaceOnUse" color-interpolation-filters="sRGB">
<feFlood flood-opacity="0" result="BackgroundImageFix"/>
<feColorMatrix in="SourceAlpha" type="matrix" values="0 0 0 0 0 0 0 0 0 0 0 0 0 0 0 0 0 0 127 0" result="hardAlpha"/>
<feOffset dx="4" dy="4"/>
<feGaussianBlur stdDeviation="5"/>
<feComposite in2="hardAlpha" operator="out"/>
<feColorMatrix type="matrix" values="0 0 0 0 0 0 0 0 0 0 0 0 0 0 0 0 0 0 0.05 0"/>
<feBlend mode="normal" in2="BackgroundImageFix" result="effect1_dropShadow_9_137"/>
<feBlend mode="normal" in="SourceGraphic" in2="effect1_dropShadow_9_137" result="shape"/>
</filter>
<linearGradient id="paint0_linear_9_137" x1="4.96552" y1="4.5" x2="36.3018" y2="26.1443" gradientUnits="userSpaceOnUse">
<stop stop-color="#F03A2B"/>
<stop offset="1" stop-color="#FCC009"/>
</linearGradient>
</defs>
</svg>
