<svg width="152" height="69" viewBox="0 0 152 69" fill="none" xmlns="http://www.w3.org/2000/svg">
<g clip-path="url(#clip0_12_305)">
<path d="M27.7428 29.1235L27.735 29.5925C27.7596 30.5301 28.0118 32.7898 29.6656 35.5906C30.7388 37.2522 32.0963 38.7582 33.483 40.0975C33.999 40.5958 34.5406 41.054 35.0302 41.5523L35.0422 41.5634C35.0402 41.5618 35.0384 41.5602 35.0364 41.5587C35.5935 42.1267 36.0826 42.7475 36.385 43.5423C37.2965 45.9373 36.5245 48.5978 34.7655 50.3348C34.5824 50.5156 34.173 50.7364 34.0482 50.9556C36.0991 47.3525 33.5163 44.0945 33.5163 44.0945C33.5163 44.0945 25.3117 34.8522 27.7428 29.1235Z" fill="url(#paint0_linear_12_305)"/>
<path d="M30.9142 25.3335C31.1655 21.7966 33.4441 17.6731 36.8825 16.3578C36.8825 16.3578 36.2183 17.2244 35.6889 18.906C35.6257 19.14 35.566 19.3692 35.505 19.586C35.4632 19.7342 35.4249 19.8833 35.3893 20.0331C35.2714 20.5704 35.1745 21.1648 35.1143 21.8162C35.0741 22.3635 35.0733 22.9137 35.1137 23.4614C35.3097 26.1184 36.1305 28.6857 37.2117 31.1043C38.2627 33.4556 39.8687 35.6011 40.6919 38.0392C42.4069 43.1184 39.9186 49.0567 34.8188 50.9565C36.1329 50.2986 37.2142 49.2413 37.9062 47.9425C39.5778 44.7315 37.9267 42.0029 36.1046 39.4061C35.4249 38.4376 34.7215 37.4875 34.1578 36.5375C34.1537 36.5304 34.1495 36.5233 34.1453 36.5163C32.1361 33.1213 30.6286 29.3543 30.9142 25.3335Z" fill="url(#paint1_linear_12_305)"/>
<path d="M18.9245 22.1678L33.2248 17.7399C32.7404 18.2596 32.2907 18.844 31.8836 19.4906C31.4888 20.1178 31.1484 20.782 30.8661 21.465L21.9511 24.2255C21.9511 24.2255 20.4685 30.7919 23.5609 38.0005C23.5609 38.0008 23.5609 38.0012 23.5609 38.0014C23.6122 37.1413 23.7165 36.6094 23.7165 36.6094C24.1722 37.9843 25.5397 38.5189 25.5397 38.5189C24.527 33.619 26.7305 30.363 27.4942 29.4127L27.4943 29.4126C27.6472 29.2223 27.7428 29.1239 27.7428 29.1239C25.8337 33.6227 30.4836 40.2883 32.5682 42.9431C34.2631 45.1016 34.2837 48.1547 32.599 50.3213C32.5719 50.3561 32.5468 50.3876 32.5239 50.4159C32.5239 50.4159 31.2275 52.0249 29.1992 50.3737C15.2303 38.5317 18.9245 22.1678 18.9245 22.1678Z" fill="url(#paint2_linear_12_305)"/>
<path d="M34.8187 50.9557L34.8073 50.9576L35.1955 50.8052C40.0398 48.7591 42.364 42.9907 40.6918 38.0384C40.0646 36.1807 39.0343 34.646 38.1317 32.9426C37.5649 31.8729 37.2705 31.0488 37.124 30.4337L37.1239 30.434C36.7857 29.2179 37.1329 28.0201 37.5758 27.1128C38.033 26.1175 38.6061 25.5336 38.6061 25.5337C38.274 27.3856 38.4331 29.3864 39.3033 31.0745C40.2516 32.9139 42.0164 34.2765 43.1625 36.0056C43.6237 36.7017 43.8248 37.3971 44.0769 38.168C44.4542 37.401 44.3873 36.4337 44.1324 35.6425C44.6601 36.261 44.9768 36.9815 45.1598 37.6981C48.084 30.6091 46.6427 24.2251 46.6427 24.2251L36.1959 20.9904C36.2358 20.7402 36.2816 20.4929 36.3345 20.2507C36.3675 20.1126 36.4024 19.978 36.4382 19.8505C36.4808 19.6994 36.5228 19.5423 36.5656 19.3816L36.6197 19.1798C36.7328 18.8229 36.8522 18.5079 36.9682 18.2347L49.6692 22.1674C49.6692 22.1674 54.1956 42.2093 34.2969 53.9839C32.8441 51.9329 34.8187 50.9557 34.8187 50.9557Z" fill="url(#paint3_linear_12_305)"/>
<path d="M34.6223 60.944C25.1873 60.944 16.9122 55.9495 12.2693 48.4463C9.68481 44.2563 8.31541 39.4239 8.31541 34.4935C8.31541 29.5632 9.68481 24.7308 12.2693 20.5408C16.9118 13.038 25.1873 8.04353 34.6223 8.04353C44.0573 8.04353 52.3333 13.0385 56.9757 20.5413H65.9955C60.6677 8.44705 48.6256 0.0102539 34.6223 0.0102539C20.619 0.0102539 8.57694 8.4466 3.24733 20.5408C1.31954 24.9371 0.323914 29.6889 0.323914 34.4935C0.323914 39.2981 1.31954 44.05 3.24733 48.4463C8.57604 60.5405 20.6186 68.9777 34.621 68.9777C48.6234 68.9777 60.6659 60.5405 65.9941 48.4463H56.9744C52.3315 55.9472 44.0564 60.944 34.621 60.944" fill="white"/>
<path d="M18.4172 6.68496L20.1902 9.85345L19.7974 10.0771L18.0253 6.90818L16.9346 7.52498L16.7297 7.15445L19.2981 5.70215L19.5044 6.07087L18.4172 6.68496Z" fill="#243469"/>
<path d="M20.8769 5.56529C21.0639 5.12218 21.3979 4.75803 21.8221 4.53499C22.2464 4.31194 22.7344 4.24384 23.203 4.34229C23.6716 4.44074 24.0917 4.69966 24.3915 5.07483C24.6914 5.45001 24.8525 5.9182 24.8473 6.3995C24.8421 6.88079 24.671 7.34535 24.363 7.71389C24.0551 8.08244 23.6296 8.33212 23.159 8.42032C22.6884 8.50852 22.2019 8.42977 21.7826 8.19752C21.3633 7.96527 21.0372 7.59391 20.8599 7.14683C20.7549 6.89606 20.7023 6.62631 20.7053 6.35428C20.7082 6.08224 20.7666 5.81371 20.8769 5.56529ZM23.3937 4.86716C23.0005 4.69895 22.5571 4.69397 22.1602 4.85329C21.7634 5.01262 21.4454 5.32332 21.2756 5.71757C21.1048 6.12546 21.1055 6.5472 21.2778 6.9828C21.4501 7.4184 21.7382 7.72416 22.142 7.90009C22.5353 8.06824 22.9788 8.07309 23.3757 7.91359C23.7725 7.75409 24.0905 7.44318 24.2601 7.04877C24.4333 6.63968 24.4333 6.21794 24.2601 5.78354C24.087 5.34915 23.7981 5.04369 23.3937 4.86716Z" fill="#243469"/>
<path d="M25.4425 3.2985L26.6824 3.00253C27.1918 2.88203 27.6358 2.91306 28.0145 3.09562C28.3932 3.27817 28.6357 3.59357 28.7421 4.04182C28.8479 4.48977 28.773 4.88139 28.5174 5.21668C28.2618 5.55196 27.8792 5.78045 27.3696 5.90216L26.5674 6.09375L26.8132 7.13937L26.3759 7.2442L25.4425 3.2985ZM26.4681 5.68165L27.2986 5.48328C27.665 5.39561 27.9484 5.23656 28.1489 5.00611C28.3493 4.77565 28.4092 4.48736 28.3286 4.14123C28.2477 3.79902 28.066 3.56932 27.7835 3.45214C27.501 3.33495 27.1763 3.31989 26.8096 3.40695L25.9796 3.60532L26.4681 5.68165Z" fill="#243469"/>
<path d="M30.311 2.75218L30.7155 6.36485L30.2674 6.41591L29.818 2.38255L32.3168 2.10059L32.3617 2.52082L30.311 2.75218Z" fill="#243469"/>
<path d="M33.8174 2.59327C34.1613 2.2586 34.6101 2.05429 35.0871 2.01518C35.5641 1.97607 36.0399 2.1046 36.4332 2.37883C36.8265 2.65306 37.113 3.05601 37.2437 3.51892C37.3745 3.98183 37.3415 4.47603 37.1503 4.91719C36.9591 5.35836 36.6216 5.71915 36.1954 5.93803C35.7691 6.15691 35.2806 6.2203 34.813 6.11739C34.3455 6.01448 33.9279 5.75165 33.6316 5.37374C33.3353 4.99582 33.1786 4.52624 33.1882 4.04512C33.1884 3.77266 33.2444 3.50316 33.3526 3.25339C33.4609 3.00362 33.6191 2.77892 33.8174 2.59327ZM36.4065 2.93488C36.1094 2.6261 35.7028 2.44804 35.2756 2.43957C34.8483 2.4311 34.4351 2.59292 34.1262 2.88969C33.8101 3.19847 33.6477 3.58662 33.639 4.05415C33.6303 4.52169 33.7773 4.91601 34.0799 5.23714C34.377 5.54592 34.7835 5.72398 35.2108 5.73245C35.638 5.74092 36.0512 5.5791 36.3602 5.28233C36.6775 4.97325 36.8408 4.58495 36.85 4.11742C36.8593 3.64988 36.7115 3.25631 36.4065 2.93669V2.93488Z" fill="#243469"/>
<path d="M38.9002 2.29102L40.3447 2.53457C41.2243 2.68278 41.6069 3.09986 41.4925 3.78579C41.4179 4.23585 41.1684 4.49371 40.7442 4.55938C40.9938 4.65247 41.175 4.79857 41.288 4.99769C41.4026 5.2073 41.4396 5.45101 41.3922 5.68543C41.2691 6.42529 40.7448 6.7172 39.8193 6.56115L38.2324 6.29365L38.9002 2.29102ZM38.9901 4.48708L38.7461 5.95113L39.969 6.15718C40.5604 6.2572 40.8968 6.06304 40.9783 5.57473C41.0158 5.3497 40.9708 5.15901 40.8435 5.00266C40.7162 4.84632 40.5053 4.74314 40.2107 4.69314L38.9901 4.48708ZM39.2742 2.7831L39.0539 4.1039L40.0948 4.27968C40.6673 4.37577 40.9902 4.20467 41.0633 3.76636C41.0971 3.56422 41.0642 3.39312 40.9644 3.25304C40.8646 3.11296 40.6482 3.01475 40.315 2.95842L39.2742 2.7831Z" fill="#243469"/>
<path d="M43.1849 4.77631L44.3413 5.15723C44.7607 5.29551 45.0454 5.50336 45.1952 5.78081C45.345 6.05826 45.3599 6.38059 45.2401 6.7478C44.9875 7.5229 44.4332 7.76962 43.5773 7.48796L41.9935 6.96606L43.2519 3.10938L43.6793 3.24991L43.1849 4.77631ZM42.5557 6.70488L43.7175 7.08761C44.0282 7.18973 44.2716 7.19982 44.4478 7.11788C44.624 7.03594 44.7535 6.868 44.8365 6.61405C45.0028 6.10374 44.7955 5.75279 44.2145 5.5612L43.0528 5.17847L42.5557 6.70488ZM45.8176 8.22405L45.3902 8.08307L46.6486 4.22639L47.0764 4.36737L45.8176 8.22405Z" fill="#243469"/>
<path d="M49.4633 10.0448L49.0624 9.84012L50.4911 7.01234L46.9645 8.76648L46.7398 8.65126L48.568 5.03271L48.9689 5.23786L47.5402 8.06519L51.0717 6.31194L51.2928 6.42446L49.4633 10.0448ZM50.6767 5.54739C50.4681 5.59622 50.2492 5.56951 50.0583 5.47198C49.8674 5.37445 49.7168 5.21234 49.6331 5.01418C49.5949 4.92009 49.5777 4.81867 49.5828 4.71714C49.5879 4.61561 49.6152 4.51647 49.6628 4.42676L49.9351 4.56593C49.9068 4.62047 49.8911 4.68073 49.8892 4.74223C49.8872 4.80372 49.8991 4.86486 49.9239 4.9211C49.9757 5.04613 50.0718 5.1474 50.1936 5.20532C50.3127 5.27067 50.4515 5.28965 50.5837 5.25864C50.6439 5.24629 50.7005 5.2203 50.7493 5.18264C50.798 5.14498 50.8376 5.09664 50.865 5.0413L51.1346 5.17686C51.0904 5.26862 51.0265 5.34942 50.9476 5.41348C50.8686 5.47753 50.7766 5.52326 50.678 5.54739H50.6767Z" fill="#243469"/>
<path d="M30.6369 67.3375L30.196 67.2472L30.3434 66.5138L27.0213 65.8369L26.8739 66.5698L26.433 66.4794L26.664 65.3312L27.1782 65.4361L29.3637 62.1768L29.6122 62.2274L30.3591 66.0886L30.8679 66.192L30.6369 67.3375ZM29.3133 63.0285L27.646 65.5341L29.8841 65.9896L29.3133 63.0285Z" fill="#243469"/>
<path d="M32.2637 63.2185C32.6119 62.8882 33.0632 62.6897 33.5407 62.6567C34.0182 62.6238 34.4922 62.7584 34.882 63.0377C35.2718 63.3169 35.5531 63.7235 35.678 64.1881C35.8029 64.6526 35.7636 65.1463 35.5668 65.585C35.3701 66.0237 35.028 66.3801 34.599 66.5935C34.17 66.8069 33.6807 66.864 33.2145 66.7551C32.7483 66.6462 32.3341 66.378 32.0426 65.9964C31.7511 65.6147 31.6004 65.1431 31.6161 64.6622C31.6198 64.3897 31.6791 64.1209 31.7905 63.8726C31.902 63.6242 32.063 63.4015 32.2637 63.2185ZM34.8474 63.5949C34.5544 63.2821 34.1503 63.0986 33.7233 63.0844C33.2962 63.0702 32.8809 63.2264 32.568 63.5189C32.2483 63.8235 32.0808 64.2094 32.0655 64.6766C32.0502 65.1438 32.1921 65.5403 32.4911 65.8659C32.7841 66.1787 33.1882 66.3622 33.6153 66.3764C34.0423 66.3906 34.4577 66.2344 34.7706 65.9418C35.0918 65.6373 35.2601 65.2512 35.2757 64.7837C35.2913 64.3162 35.1485 63.9199 34.8474 63.5949Z" fill="#243469"/>
<path d="M41.0498 66.142L40.6049 66.2103L40.1276 63.0576L38.9277 65.1886L37.1516 63.5135L37.6293 66.6662L37.1844 66.734L36.5768 62.7219L36.8276 62.6835L38.8355 64.5813L40.191 62.1688L40.4417 62.1304L41.0498 66.142Z" fill="#243469"/>
<path d="M65.6395 33.5288H63.5659V26.8678L58.5774 33.5301H57.3604V22.9551H59.4336V29.6169L64.4077 22.9551H65.6395V33.5288Z" fill="white"/>
<path d="M75.4358 33.5286H73.5276V30.6276H70.2523V33.5286H68.3441V25.9761H70.2523V28.7709H73.5276V25.9761H75.4358V33.5286Z" fill="white"/>
<path d="M84.9922 33.5286H83.084V29.0732L79.2375 33.5286H78.0052V25.9761H79.9134V30.4328L83.7599 25.9761H84.9922V33.5286Z" fill="white"/>
<path d="M95.7499 34.9348H93.8417V33.5286H87.5463V25.9761H89.4545V31.6696H92.6246V25.9761H94.5329V31.6696H95.7499V34.9348Z" fill="white"/>
<path d="M104.509 33.5286H102.601V29.0732L98.7546 33.5286H97.5228V25.9761H99.431V30.4328L103.278 25.9761H104.509V33.5286Z" fill="white"/>
<path d="M114.156 33.5279H112.878L112.773 32.4552C112.162 33.2306 111.331 33.6183 110.279 33.6183C109.227 33.6183 108.353 33.2456 107.657 32.5004C106.961 31.7563 106.613 30.8402 106.613 29.7521C106.613 28.664 106.961 27.7452 107.657 26.9957C108.353 26.2456 109.227 25.8704 110.278 25.8701C111.33 25.8698 112.162 26.2626 112.773 27.0486L112.878 25.9759H114.155L114.156 33.5279ZM110.46 31.7602C110.712 31.7625 110.962 31.7143 111.195 31.6183C111.429 31.5223 111.641 31.3805 111.819 31.2012C112.205 30.8289 112.397 30.3454 112.397 29.7507C112.397 29.1561 112.205 28.6702 111.819 28.293C111.433 27.9153 110.98 27.7264 110.46 27.7264C109.939 27.7264 109.486 27.9153 109.1 28.293C108.714 28.6708 108.521 29.1567 108.521 29.7507C108.521 30.3448 108.712 30.8283 109.092 31.2012C109.271 31.3821 109.484 31.525 109.719 31.6212C109.954 31.7175 110.206 31.7652 110.46 31.7615V31.7602Z" fill="white"/>
<path d="M120.18 27.8351V33.5286H118.288V27.8351H115.943V25.9761H122.525V27.8351H120.18Z" fill="white"/>
<path d="M131.269 33.5286H129.361V29.0732L125.515 33.5286H124.282V25.9761H126.19V30.4328L130.037 25.9761H131.269V33.5286Z" fill="white"/>
<path d="M133.823 25.9761H137.76C139.483 25.9761 140.344 26.661 140.344 28.0307C140.344 28.8266 140.004 29.3453 139.322 29.5869C140.234 29.7978 140.69 30.3617 140.69 31.2787C140.69 32.0743 140.46 32.6483 139.999 33.0008C139.538 33.3533 138.797 33.5292 137.775 33.5286H133.823V25.9761ZM135.732 27.6091V28.9534H137.655C138.176 28.9435 138.436 28.7176 138.436 28.2756C138.436 27.8337 138.166 27.6115 137.625 27.6091H135.732ZM135.732 31.8996H137.82C138.461 31.8996 138.781 31.6377 138.782 31.1138C138.782 30.6104 138.471 30.3544 137.85 30.3456H135.732V31.8996Z" fill="white"/>
<path d="M149.84 33.5279H148.563L148.458 32.4552C147.847 33.2306 147.015 33.6183 145.964 33.6183C144.912 33.6183 144.038 33.2456 143.342 32.5004C142.645 31.7563 142.296 30.8402 142.296 29.7521C142.296 28.664 142.644 27.7452 143.341 26.9957C144.037 26.2456 144.911 25.8704 145.962 25.8701C147.014 25.8698 147.846 26.2626 148.457 27.0486L148.562 25.9759H149.839L149.84 33.5279ZM146.144 31.7602C146.396 31.7625 146.646 31.7143 146.88 31.6183C147.113 31.5223 147.326 31.3806 147.504 31.2012C147.89 30.8289 148.082 30.3454 148.082 29.7507C148.082 29.1561 147.89 28.6702 147.504 28.293C147.118 27.9153 146.664 27.7264 146.144 27.7264C145.624 27.7264 145.17 27.9153 144.784 28.293C144.399 28.6708 144.206 29.1567 144.206 29.7507C144.206 30.3448 144.396 30.8283 144.777 31.2012C144.956 31.3822 145.169 31.5251 145.404 31.6214C145.639 31.7176 145.89 31.7653 146.144 31.7615V31.7602Z" fill="white"/>
<path d="M65.4741 46.0839H63.401V37.4732H59.434V46.0839H57.3608V35.5103H65.4741V46.0839Z" fill="white"/>
<path d="M71.5744 38.4243C72.6464 38.4243 73.558 38.8045 74.3091 39.5648C75.0602 40.3252 75.4358 41.2391 75.4358 42.3068C75.4358 43.3747 75.0602 44.2862 74.3091 45.0415C73.558 45.7967 72.6464 46.1743 71.5744 46.1743C70.5027 46.1743 69.5937 45.7967 68.8474 45.0415C68.1011 44.2862 67.7279 43.3747 67.7279 42.3068C67.7279 41.2292 68.1036 40.3127 68.855 39.5571C69.6065 38.8016 70.5129 38.424 71.5744 38.4243ZM72.9344 40.849C72.5485 40.4713 72.0952 40.2824 71.5744 40.2824C71.0537 40.2824 70.6004 40.4711 70.2145 40.8486C69.8289 41.2263 69.6361 41.7122 69.6361 42.3063C69.6361 42.9004 69.8265 43.3839 70.2073 43.7568C70.5717 44.1151 71.0611 44.3158 71.5708 44.3158C72.0805 44.3158 72.57 44.1151 72.9344 43.7568C73.3197 43.3842 73.5125 42.9007 73.5128 42.3063C73.5131 41.7119 73.3203 41.226 72.9344 40.8486V40.849Z" fill="white"/>
<path d="M77.5391 38.5298H81.476C83.1988 38.5298 84.0601 39.2147 84.0601 40.5844C84.0601 41.38 83.7196 41.8986 83.0386 42.1402C83.95 42.3511 84.4058 42.9152 84.4058 43.8324C84.4058 44.6283 84.1755 45.2024 83.715 45.5545C83.2545 45.9067 82.5131 46.0829 81.4908 46.0832H77.5391V38.5298ZM79.4473 40.1615V41.5058H81.3708C81.8916 41.4958 82.1519 41.2699 82.1519 40.828C82.1519 40.3861 81.8823 40.1645 81.343 40.1633L79.4473 40.1615ZM79.4473 44.4542H81.5353C82.1762 44.4542 82.4966 44.1923 82.4966 43.6684C82.4966 43.165 82.1862 42.909 81.5654 42.9002H79.4464L79.4473 44.4542Z" fill="white"/>
<path d="M89.9353 38.4243C91.0067 38.4243 91.9182 38.8045 92.6696 39.5648C93.421 40.3252 93.7967 41.2391 93.7967 42.3068C93.7967 43.3747 93.421 44.2862 92.6696 45.0415C91.9182 45.7967 91.0067 46.1743 89.9353 46.1743C88.863 46.1743 87.954 45.7967 87.2083 45.0415C86.4626 44.2862 86.0894 43.3747 86.0888 42.3068C86.0888 41.2292 86.4644 40.3127 87.2155 39.5571C87.9666 38.8016 88.8732 38.424 89.9353 38.4243ZM91.2948 40.849C90.9092 40.4713 90.4561 40.2824 89.9353 40.2824C89.4146 40.2824 88.9613 40.4711 88.5754 40.8486C88.1898 41.2263 87.997 41.7122 87.997 42.3063C87.997 42.9004 88.1873 43.3839 88.5678 43.7568C88.9322 44.1151 89.4216 44.3158 89.9313 44.3158C90.441 44.3158 90.9304 44.1151 91.2948 43.7568C91.6795 43.3845 91.8719 42.9011 91.8719 42.3068C91.8719 41.7124 91.6795 41.2263 91.2948 40.8486V40.849Z" fill="white"/>
<path d="M99.2054 41.3549L97.147 46.0832H95.1188L98.5897 38.5298H99.8215L103.292 46.0832H101.279L99.2054 41.3549Z" fill="white"/>
<path d="M114.621 46.0832L113.329 44.0742C113.089 43.7016 112.877 43.4497 112.691 43.3187C112.504 43.1876 112.242 43.1223 111.902 43.1226H111.466V46.0832H109.558V43.1226H109.109C108.768 43.1226 108.505 43.1879 108.32 43.3187C108.135 43.4494 107.922 43.7013 107.681 44.0742L106.388 46.0832H104.269L106.072 43.3187C106.492 42.6743 106.873 42.2967 107.214 42.1858C106.885 42.0449 106.529 41.6772 106.148 41.0828L104.465 38.5298H106.583L107.756 40.3273C107.995 40.7003 108.205 40.9521 108.385 41.0828C108.564 41.2136 108.825 41.2791 109.166 41.2794H109.556V38.5298H111.466V41.2794H111.842C112.193 41.2794 112.458 41.2139 112.638 41.0828C112.819 40.9518 113.028 40.7 113.268 40.3273L114.425 38.5298H116.545L114.877 41.0828C114.476 41.6974 114.115 42.065 113.795 42.1858C114.125 42.2868 114.505 42.6644 114.937 43.3187L116.74 46.0832H114.621Z" fill="white"/>
<path d="M120.421 40.7051H122.162C122.783 40.7051 123.314 40.7908 123.755 40.9622C124.196 41.1336 124.522 41.3595 124.732 41.64C124.927 41.895 125.079 42.1808 125.181 42.4859C125.361 43.0766 125.361 43.7081 125.181 44.2988C125.079 44.604 124.927 44.8901 124.732 45.1451C124.522 45.4271 124.196 45.653 123.755 45.8229C123.314 45.9928 122.783 46.0784 122.162 46.0796H118.511V38.5298H120.419L120.421 40.7051ZM120.421 44.2857H122.374C123.066 44.2857 123.411 43.9885 123.411 43.3941C123.411 42.7998 123.066 42.5027 122.374 42.503H120.421V44.2857Z" fill="white"/>
<path d="M130.713 38.4243C132.306 38.4243 133.408 39.1041 134.019 40.4636C134.169 40.795 134.254 41.1953 134.274 41.6647C134.294 42.134 134.25 42.5243 134.139 42.8354H128.895C128.895 43.3295 129.073 43.7173 129.428 43.999C129.784 44.2807 130.227 44.4216 130.758 44.4219C131.59 44.4219 132.346 44.2457 133.027 43.8933L134.034 44.9958C132.982 45.7818 131.89 46.1746 130.758 46.1743C129.626 46.174 128.705 45.8089 127.993 45.079C127.282 44.3487 126.927 43.4247 126.927 42.3068C126.927 41.1988 127.273 40.2747 127.964 39.5346C128.655 38.7944 129.572 38.4243 130.713 38.4243ZM130.713 40.1767C130.222 40.1767 129.814 40.3228 129.489 40.615C129.163 40.9072 128.991 41.2446 128.971 41.6271H132.411C132.413 41.412 132.351 41.2013 132.231 41.0225C131.93 40.4586 131.424 40.1767 130.713 40.1767Z" fill="white"/>
<path d="M69.3962 51.508C69.8475 51.5079 70.2848 51.665 70.6338 51.9528C70.9827 52.2405 71.2216 52.641 71.3098 53.086C71.398 53.531 71.3299 53.993 71.1173 54.3932C70.9046 54.7934 70.5606 55.1071 70.1436 55.2808C69.7267 55.4545 69.2628 55.4775 68.831 55.3458C68.3991 55.2142 68.026 54.936 67.7753 54.5587C67.5245 54.1815 67.4116 53.7285 67.4559 53.2769C67.5001 52.8254 67.6987 52.4032 68.0178 52.0824C68.1964 51.8971 68.4109 51.7506 68.6479 51.6518C68.885 51.553 69.1396 51.5041 69.3962 51.508ZM69.3885 52.0439C69.2057 52.0415 69.0243 52.0767 68.8553 52.1471C68.6864 52.2176 68.5336 52.3219 68.4061 52.4538C68.132 52.7267 67.9949 53.0674 67.9949 53.4759C67.9949 53.8844 68.1306 54.2237 68.4021 54.494C68.6659 54.7545 69.021 54.9004 69.3908 54.9004C69.7606 54.9004 70.1156 54.7545 70.3795 54.494C70.6536 54.2228 70.7907 53.8835 70.7907 53.4759C70.7907 53.0683 70.6536 52.7276 70.3795 52.4538C70.2507 52.3213 70.0964 52.2166 69.926 52.1462C69.7556 52.0757 69.5728 52.0409 69.3885 52.0439Z" fill="white"/>
<path d="M77.5741 51.5079C78.1134 51.5079 78.5652 51.6993 78.9295 52.0822C79.2939 52.4651 79.4766 52.9296 79.4778 53.4757C79.4778 54.0216 79.2951 54.4848 78.9295 54.8652C78.564 55.2457 78.1122 55.4358 77.5741 55.4355C77.2839 55.4381 76.9984 55.3614 76.7481 55.2136C76.5025 55.0722 76.3003 54.8656 76.1638 54.6163V56.6989H75.6156V54.6239C75.4773 54.8699 75.2754 55.0737 75.0313 55.2136C74.781 55.3614 74.4955 55.4381 74.2053 55.4355C73.666 55.4355 73.2142 55.2454 72.8499 54.8652C72.4855 54.4851 72.3028 54.0219 72.3016 53.4757C72.3016 52.9293 72.4843 52.4648 72.8499 52.0822C73.2154 51.6996 73.6687 51.5082 74.2098 51.5079C74.5248 51.5053 74.8344 51.59 75.1046 51.7528C75.3689 51.9085 75.5864 52.1334 75.7338 52.4035L75.749 51.5612H76.0461L76.0533 52.4035C76.2007 52.1334 76.4181 51.9085 76.6825 51.7528C76.9518 51.5906 77.2602 51.5059 77.5741 51.5079ZM74.2484 54.9073C74.4322 54.91 74.6147 54.8751 74.7846 54.8047C74.9546 54.7343 75.1086 54.6299 75.2371 54.4979C75.5113 54.2243 75.6484 53.8836 75.6484 53.4757C75.6484 53.0679 75.5113 52.7272 75.2371 52.4536C74.9754 52.1912 74.6208 52.0438 74.2511 52.0438C73.8815 52.0438 73.5269 52.1912 73.2651 52.4536C72.991 52.7265 72.8539 53.0673 72.8539 53.4757C72.8539 53.8842 72.991 54.2249 73.2651 54.4979C73.3926 54.6294 73.5453 54.7335 73.7141 54.8039C73.8828 54.8743 74.064 54.9094 74.2466 54.9073H74.2484ZM77.5292 54.9073C77.7119 54.9095 77.8932 54.8744 78.062 54.804C78.2308 54.7336 78.3836 54.6294 78.5111 54.4979C78.7853 54.2243 78.9223 53.8836 78.9223 53.4757C78.9223 53.0679 78.7853 52.7272 78.5111 52.4536C78.2494 52.1912 77.8948 52.0438 77.5251 52.0438C77.1554 52.0438 76.8009 52.1912 76.5391 52.4536C76.265 52.7265 76.1279 53.0673 76.1279 53.4757C76.1279 53.8842 76.265 54.2249 76.5391 54.4979C76.6678 54.63 76.8219 54.7345 76.9921 54.8048C77.1622 54.8752 77.3448 54.9101 77.5287 54.9073H77.5292Z" fill="white"/>
<path d="M84.0853 55.3902H83.537V52.4982L81.001 55.3902H80.6661V51.5615H81.2207V54.4557L83.7568 51.5615H84.0844L84.0853 55.3902Z" fill="white"/>
<path d="M89.6135 56.2397H89.0576V55.3902H85.5014V51.5615H86.0573V54.8601H88.3723V51.5615H88.9205V54.8601H89.6135V56.2397Z" fill="white"/>
<path d="M94.0147 55.3902H93.4664V52.4982L90.9308 55.3902H90.5955V51.5615H91.1528V54.4557L93.6888 51.5615H94.016L94.0147 55.3902Z" fill="white"/>
<path d="M99.071 55.3898H98.675L98.6521 54.5245C98.5059 54.7994 98.2873 55.0286 98.0203 55.187C97.7444 55.3532 97.4281 55.4392 97.1066 55.4355C96.5673 55.4355 96.1155 55.2454 95.7512 54.8652C95.3868 54.4851 95.2041 54.0219 95.2029 53.4757C95.2029 52.9293 95.3856 52.4648 95.7512 52.0822C96.1167 51.6996 96.5685 51.5082 97.1066 51.5079C97.4268 51.5053 97.7415 51.5914 98.0162 51.7568C98.285 51.9141 98.5051 52.1433 98.6521 52.4188L98.675 51.5603H99.071V55.3898ZM96.1583 54.4947C96.4222 54.7552 96.7772 54.9012 97.147 54.9012C97.5168 54.9012 97.8719 54.7552 98.1357 54.4947C98.4099 54.2236 98.547 53.8842 98.547 53.4766C98.547 53.0691 98.4099 52.7284 98.1357 52.4545C97.874 52.1921 97.5194 52.0447 97.1497 52.0447C96.7801 52.0447 96.4255 52.1921 96.1637 52.4545C95.8896 52.7275 95.7525 53.0682 95.7525 53.4766C95.7525 53.8851 95.8878 54.2245 96.1583 54.4947Z" fill="white"/>
<path d="M101.972 52.4192L100.639 55.3902H100.055L101.808 51.5615H102.143L103.902 55.3902H103.318L101.972 52.4192Z" fill="white"/>
<path d="M105.437 52.8019H106.747C107.29 52.8019 107.677 52.9271 107.909 53.1774C108.138 53.4237 108.263 53.7508 108.255 54.0884C108.257 54.247 108.232 54.4049 108.183 54.5556C108.131 54.7051 108.052 54.8438 107.951 54.965C107.825 55.1083 107.663 55.2153 107.482 55.275C107.246 55.3568 106.997 55.3958 106.747 55.3902H104.881V51.5615H105.437L105.437 52.8019ZM105.429 54.8692H106.792C107.397 54.8692 107.699 54.6089 107.699 54.0884C107.699 53.5784 107.397 53.3232 106.792 53.3229H105.429V54.8692Z" fill="white"/>
<path d="M112.839 55.39H112.283V53.7267H109.946V55.3882H109.39V51.5596H109.946V53.1908H112.283V51.5596H112.839V55.39Z" fill="white"/>
<path d="M114.811 52.8019H116.121C116.664 52.8019 117.051 52.9271 117.282 53.1774C117.512 53.4237 117.636 53.7508 117.629 54.0884C117.63 54.247 117.606 54.4049 117.556 54.5556C117.504 54.7051 117.425 54.8438 117.324 54.965C117.198 55.1083 117.036 55.2153 116.856 55.275C116.619 55.3568 116.371 55.3958 116.121 55.3902H114.255V51.5615H114.811V52.8019ZM114.803 54.8692H116.166C116.771 54.8692 117.073 54.6089 117.073 54.0884C117.073 53.5784 116.771 53.3232 116.166 53.3229H114.803V54.8692ZM118.657 55.3902H118.101V51.5615H118.657L118.657 55.3902Z" fill="white"/>
<path d="M123.484 55.3904H122.936V52.4985L120.4 55.3904H120.065V51.5618H120.621V54.456L123.157 51.5618H123.484V55.3904ZM122.544 50.8306C122.328 51.0161 122.054 51.118 121.771 51.118C121.487 51.118 121.213 51.0161 120.998 50.8306C120.897 50.7429 120.817 50.6341 120.762 50.5117C120.708 50.3894 120.681 50.2565 120.683 50.1226H121.088C121.087 50.2033 121.104 50.2833 121.138 50.3563C121.173 50.4293 121.223 50.4934 121.286 50.5437C121.422 50.6578 121.596 50.7178 121.773 50.7122C121.952 50.7173 122.126 50.6575 122.264 50.5437C122.328 50.4939 122.379 50.43 122.414 50.3569C122.449 50.2839 122.467 50.2037 122.466 50.1226H122.862C122.864 50.2568 122.836 50.3898 122.781 50.5122C122.726 50.6346 122.645 50.7433 122.544 50.8306Z" fill="white"/>
<path d="M131.274 56.2398H130.726V55.3903H127.445V56.2398H126.889V54.8616H127.407L128.915 51.563H129.25L130.758 54.8616H131.276L131.274 56.2398ZM129.081 52.4193L127.977 54.8594H130.193L129.081 52.4193Z" fill="white"/>
<path d="M135.683 55.3902H135.135V52.4982L132.599 55.3902H132.264V51.5615H132.82V54.4557L135.356 51.5615H135.683V55.3902Z" fill="white"/>
<path d="M138.584 52.4192L137.252 55.3902H136.665L138.418 51.5615H138.753L140.512 55.3902H139.928L138.584 52.4192Z" fill="white"/>
<path d="M142.97 51.5078C143.381 51.5078 143.734 51.6074 144.029 51.8065C144.324 52.0069 144.553 52.2925 144.684 52.6257C144.748 52.7895 144.785 52.9628 144.794 53.1386C144.81 53.2956 144.796 53.4543 144.752 53.6058H141.6C141.6 54.0089 141.733 54.3291 142 54.5665C142.266 54.8039 142.611 54.9251 143.033 54.9302C143.504 54.9337 143.965 54.7892 144.35 54.5168L144.648 54.8534C144.155 55.2414 143.617 55.4354 143.033 55.4354C142.444 55.4306 141.965 55.2469 141.595 54.8842C141.225 54.5215 141.04 54.052 141.038 53.4757C141.038 52.919 141.218 52.4521 141.577 52.0749C141.937 51.6977 142.401 51.5087 142.97 51.5078ZM142.97 52.0207C142.595 52.0207 142.281 52.1382 142.03 52.3731C141.909 52.482 141.81 52.614 141.741 52.7614C141.671 52.9087 141.631 53.0686 141.623 53.2317H144.25C144.256 53.0817 144.228 52.9322 144.166 52.7956C144.074 52.5659 143.914 52.3696 143.709 52.2326C143.49 52.0886 143.232 52.0147 142.97 52.0207Z" fill="white"/>
<path d="M148.202 51.5078C148.741 51.5078 149.193 51.6993 149.557 52.0821C149.922 52.465 150.104 52.9295 150.106 53.4757C150.106 54.0215 149.923 54.4847 149.557 54.8652C149.192 55.2457 148.74 55.4357 148.202 55.4354C147.909 55.4386 147.62 55.3604 147.368 55.2095C147.125 55.0671 146.925 54.8589 146.793 54.6085V56.7992H146.238V51.562H146.633L146.656 52.4274C146.807 52.1477 147.03 51.9145 147.303 51.7527C147.575 51.5909 147.886 51.5066 148.202 51.5087V51.5078ZM148.157 52.0437C147.973 52.041 147.791 52.076 147.621 52.1464C147.451 52.2169 147.297 52.3214 147.168 52.4536C146.894 52.7265 146.757 53.0672 146.757 53.4757C146.757 53.8842 146.894 54.2249 147.168 54.4978C147.43 54.76 147.785 54.9071 148.154 54.9071C148.524 54.9071 148.878 54.76 149.14 54.4978C149.415 54.2243 149.552 53.8836 149.552 53.4757C149.552 53.0678 149.415 52.7271 149.14 52.4536C149.013 52.3215 148.86 52.217 148.691 52.1466C148.521 52.0761 148.34 52.0411 148.157 52.0437H148.157Z" fill="white"/>
<path d="M69.6335 60.127L69.3923 60.2769C69.1837 60.0003 68.8991 59.8619 68.5384 59.8619C68.2501 59.8619 68.0104 59.9546 67.8192 60.14C67.6294 60.3255 67.5345 60.5507 67.5345 60.8158C67.5345 60.9882 67.578 61.1504 67.6649 61.3025C67.7533 61.4546 67.8735 61.5727 68.0256 61.6567C68.1791 61.7407 68.3508 61.7827 68.5406 61.7827C68.8882 61.7827 69.1721 61.6444 69.3923 61.3677L69.6335 61.5263C69.5205 61.6958 69.3684 61.8276 69.1772 61.9218C68.9874 62.0145 68.7709 62.0608 68.5275 62.0608C68.1538 62.0608 67.8438 61.9421 67.5975 61.7045C67.3513 61.4669 67.2281 61.1779 67.2281 60.8375C67.2281 60.6087 67.2854 60.3964 67.3998 60.2009C67.5157 60.0039 67.6743 59.8503 67.8757 59.7402C68.077 59.6301 68.3023 59.5751 68.5514 59.5751C68.7079 59.5751 68.8585 59.599 69.0034 59.6468C69.1497 59.6946 69.2735 59.7569 69.3749 59.8337C69.4763 59.9104 69.5625 60.0082 69.6335 60.127ZM70.5244 59.6359V61.3851L72.2605 59.6359H72.2844V62H71.9802V60.2661L70.2571 62H70.2202V59.6359H70.5244ZM75.2568 60.127L75.0156 60.2769C74.8071 60.0003 74.5224 59.8619 74.1617 59.8619C73.8735 59.8619 73.6337 59.9546 73.4425 60.14C73.2527 60.3255 73.1579 60.5507 73.1579 60.8158C73.1579 60.9882 73.2013 61.1504 73.2882 61.3025C73.3766 61.4546 73.4968 61.5727 73.6489 61.6567C73.8025 61.7407 73.9741 61.7827 74.1639 61.7827C74.5115 61.7827 74.7955 61.6444 75.0156 61.3677L75.2568 61.5263C75.1438 61.6958 74.9917 61.8276 74.8005 61.9218C74.6108 62.0145 74.3942 62.0608 74.1509 62.0608C73.7771 62.0608 73.4671 61.9421 73.2209 61.7045C72.9746 61.4669 72.8515 61.1779 72.8515 60.8375C72.8515 60.6087 72.9087 60.3964 73.0231 60.2009C73.139 60.0039 73.2976 59.8503 73.499 59.7402C73.7003 59.6301 73.9256 59.5751 74.1748 59.5751C74.3312 59.5751 74.4819 59.599 74.6267 59.6468C74.773 59.6946 74.8969 59.7569 74.9983 59.8337C75.0997 59.9104 75.1859 60.0082 75.2568 60.127ZM75.5784 59.6359H77.1342V59.8989H76.5084V62H76.202V59.8989H75.5784V59.6359ZM79.5374 61.2156L79.7937 61.3503C79.7097 61.5155 79.6127 61.6487 79.5026 61.7501C79.3925 61.8515 79.2686 61.929 79.131 61.9826C78.9934 62.0348 78.8377 62.0608 78.6639 62.0608C78.2785 62.0608 77.9772 61.9348 77.76 61.6828C77.5427 61.4293 77.434 61.1432 77.434 60.8245C77.434 60.5246 77.526 60.2574 77.71 60.0227C77.9432 59.7243 78.2554 59.5751 78.6465 59.5751C79.0492 59.5751 79.3708 59.7279 79.6112 60.0336C79.7822 60.2494 79.8691 60.5188 79.872 60.8419H77.7469C77.7527 61.1171 77.8404 61.3431 78.0098 61.5198C78.1793 61.6951 78.3886 61.7827 78.6378 61.7827C78.758 61.7827 78.8746 61.7617 78.9876 61.7197C79.1021 61.6777 79.1991 61.6219 79.2788 61.5524C79.3585 61.4829 79.4446 61.3706 79.5374 61.2156ZM79.5374 60.579C79.4968 60.4167 79.4374 60.2871 79.3592 60.19C79.2824 60.093 79.1803 60.0147 79.0528 59.9553C78.9253 59.896 78.7913 59.8663 78.6508 59.8663C78.4191 59.8663 78.2199 59.9409 78.0533 60.0901C77.9316 60.1987 77.8396 60.3617 77.7773 60.579H79.5374ZM83.0074 59.6359H83.0943L83.8961 62H83.5789L82.9944 60.2595L82.0861 62H82.0296L81.1192 60.2595L80.5369 62H80.2196L81.0258 59.6359H81.1083L82.06 61.485L83.0074 59.6359ZM85.5866 59.6359H87.5704V62H87.2662V59.9228H85.8908V62H85.5866V59.6359ZM89.3695 59.5751C89.7331 59.5751 90.0344 59.7069 90.2734 59.9706C90.4907 60.211 90.5993 60.4957 90.5993 60.8245C90.5993 61.1548 90.4842 61.4438 90.2539 61.6915C90.025 61.9377 89.7302 62.0608 89.3695 62.0608C89.0074 62.0608 88.7111 61.9377 88.4808 61.6915C88.2519 61.4438 88.1375 61.1548 88.1375 60.8245C88.1375 60.4971 88.2461 60.2132 88.4634 59.9727C88.7024 59.7076 89.0045 59.5751 89.3695 59.5751ZM89.3695 59.8728C89.1175 59.8728 88.9009 59.9662 88.7198 60.1531C88.5388 60.3399 88.4482 60.5659 88.4482 60.831C88.4482 61.0019 88.4895 61.1613 88.5721 61.309C88.6546 61.4568 88.7662 61.5712 88.9067 61.6523C89.0472 61.732 89.2015 61.7719 89.3695 61.7719C89.5375 61.7719 89.6918 61.732 89.8323 61.6523C89.9728 61.5712 90.0844 61.4568 90.1669 61.309C90.2495 61.1613 90.2908 61.0019 90.2908 60.831C90.2908 60.5659 90.1995 60.3399 90.017 60.1531C89.8359 59.9662 89.6201 59.8728 89.3695 59.8728ZM92.3789 59.6359H92.6875V60.6811L93.8173 59.6359H94.1889L93.072 60.6898L94.2736 62H93.8847L92.8613 60.8571L92.6875 61.0027V62H92.3789V61.0027L92.2094 60.8571L91.1904 62H90.8014L91.99 60.6898L90.8905 59.6359H91.2621L92.3789 60.6811V59.6359ZM96.9462 59.6359V62H96.6464V61.5937C96.5189 61.7487 96.3755 61.8653 96.2162 61.9435C96.0583 62.0217 95.8852 62.0608 95.6968 62.0608C95.3622 62.0608 95.0761 61.9399 94.8386 61.698C94.6025 61.4546 94.4844 61.1591 94.4844 60.8115C94.4844 60.471 94.6039 60.1799 94.8429 59.938C95.0819 59.6961 95.3695 59.5751 95.7055 59.5751C95.8996 59.5751 96.0749 59.6164 96.2314 59.699C96.3893 59.7815 96.5276 59.9054 96.6464 60.0705V59.6359H96.9462ZM95.7294 59.8684C95.56 59.8684 95.4035 59.9104 95.2601 59.9945C95.1167 60.077 95.0023 60.1936 94.9168 60.3443C94.8328 60.4949 94.7908 60.6543 94.7908 60.8223C94.7908 60.9889 94.8335 61.1482 94.919 61.3003C95.0044 61.4524 95.1189 61.5712 95.2623 61.6567C95.4071 61.7407 95.5621 61.7827 95.7273 61.7827C95.8939 61.7827 96.0517 61.7407 96.201 61.6567C96.3502 61.5727 96.4646 61.459 96.5443 61.3156C96.6254 61.1721 96.6659 61.0106 96.6659 60.831C96.6659 60.5572 96.5754 60.3284 96.3943 60.1444C96.2147 59.9604 95.9931 59.8684 95.7294 59.8684ZM97.6372 59.6359H97.9392V60.0705C98.0595 59.9054 98.1978 59.7815 98.3542 59.699C98.5107 59.6164 98.6852 59.5751 98.8779 59.5751C99.214 59.5751 99.5015 59.6961 99.7405 59.938C99.9795 60.1799 100.099 60.471 100.099 60.8115C100.099 61.1591 99.9803 61.4546 99.7427 61.698C99.5066 61.9399 99.2212 62.0608 98.8866 62.0608C98.6983 62.0608 98.5252 62.0217 98.3673 61.9435C98.2094 61.8653 98.0667 61.7487 97.9392 61.5937V62.8648H97.6372V59.6359ZM98.854 59.8684C98.5904 59.8684 98.368 59.9604 98.1869 60.1444C98.0073 60.3284 97.9175 60.5572 97.9175 60.831C97.9175 61.0106 97.9573 61.1721 98.037 61.3156C98.1181 61.459 98.2333 61.5727 98.3825 61.6567C98.5331 61.7407 98.6918 61.7827 98.8583 61.7827C99.022 61.7827 99.1756 61.7407 99.319 61.6567C99.4639 61.5712 99.579 61.4524 99.6645 61.3003C99.7499 61.1482 99.7927 60.9889 99.7927 60.8223C99.7927 60.6543 99.7499 60.4949 99.6645 60.3443C99.5805 60.1936 99.4667 60.077 99.3233 59.9945C99.1799 59.9104 99.0235 59.8684 98.854 59.8684ZM101.79 59.5751C102.153 59.5751 102.454 59.7069 102.693 59.9706C102.911 60.211 103.019 60.4957 103.019 60.8245C103.019 61.1548 102.904 61.4438 102.674 61.6915C102.445 61.9377 102.15 62.0608 101.79 62.0608C101.427 62.0608 101.131 61.9377 100.901 61.6915C100.672 61.4438 100.558 61.1548 100.558 60.8245C100.558 60.4971 100.666 60.2132 100.883 59.9727C101.122 59.7076 101.424 59.5751 101.79 59.5751ZM101.79 59.8728C101.537 59.8728 101.321 59.9662 101.14 60.1531C100.959 60.3399 100.868 60.5659 100.868 60.831C100.868 61.0019 100.91 61.1613 100.992 61.309C101.075 61.4568 101.186 61.5712 101.327 61.6523C101.467 61.732 101.621 61.7719 101.79 61.7719C101.958 61.7719 102.112 61.732 102.252 61.6523C102.393 61.5712 102.504 61.4568 102.587 61.309C102.67 61.1613 102.711 61.0019 102.711 60.831C102.711 60.5659 102.62 60.3399 102.437 60.1531C102.256 59.9662 102.04 59.8728 101.79 59.8728ZM103.321 59.6359H104.877V59.8989H104.251V62H103.945V59.8989H103.321V59.6359ZM105.036 59.6359H105.357L106.17 61.4568L106.959 59.6359H107.282L105.872 62.8648H105.551L106.007 61.8218L105.036 59.6359ZM111.209 62H107.676V59.6359H107.982V61.7132H109.284V59.6359H109.594V61.7132H110.898V59.6359H111.209V62ZM113.877 61.2156L114.133 61.3503C114.049 61.5155 113.952 61.6487 113.842 61.7501C113.732 61.8515 113.608 61.929 113.471 61.9826C113.333 62.0348 113.177 62.0608 113.004 62.0608C112.618 62.0608 112.317 61.9348 112.1 61.6828C111.882 61.4293 111.774 61.1432 111.774 60.8245C111.774 60.5246 111.866 60.2574 112.05 60.0227C112.283 59.7243 112.595 59.5751 112.986 59.5751C113.389 59.5751 113.711 59.7279 113.951 60.0336C114.122 60.2494 114.209 60.5188 114.212 60.8419H112.087C112.092 61.1171 112.18 61.3431 112.35 61.5198C112.519 61.6951 112.728 61.7827 112.978 61.7827C113.098 61.7827 113.214 61.7617 113.327 61.7197C113.442 61.6777 113.539 61.6219 113.619 61.5524C113.698 61.4829 113.784 61.3706 113.877 61.2156ZM113.877 60.579C113.837 60.4167 113.777 60.2871 113.699 60.19C113.622 60.093 113.52 60.0147 113.393 59.9553C113.265 59.896 113.131 59.8663 112.991 59.8663C112.759 59.8663 112.56 59.9409 112.393 60.0901C112.271 60.1987 112.179 60.3617 112.117 60.579H113.877ZM116.461 60.8614H115.087V62H114.781V59.6359H115.087V60.5746H116.461V59.6359H116.765V62H116.461V60.8614ZM117.749 59.6359V61.3851L119.485 59.6359H119.509V62H119.205V60.2661L117.482 62H117.445V59.6359H117.749ZM121.184 60.9418H120.967L120.294 62H119.965L120.676 60.9114C120.499 60.8897 120.356 60.823 120.246 60.7115C120.136 60.5985 120.081 60.4587 120.081 60.2921C120.081 60.0835 120.144 59.922 120.27 59.8076C120.397 59.6932 120.564 59.6359 120.769 59.6359H121.489V62H121.184V60.9418ZM121.184 59.8989H120.984C120.79 59.8989 120.66 59.9112 120.593 59.9358C120.527 59.9604 120.474 60.0031 120.435 60.064C120.396 60.1234 120.376 60.2038 120.376 60.3052C120.376 60.4022 120.401 60.4826 120.452 60.5464C120.503 60.6087 120.559 60.647 120.622 60.6615C120.684 60.676 120.805 60.6833 120.984 60.6833H121.184V59.8989ZM124.841 58.8037H125.161V59.2122H125.406C125.887 59.2122 126.221 59.3064 126.408 59.4947C126.595 59.6816 126.688 59.9061 126.688 60.1683C126.688 60.4073 126.606 60.6202 126.441 60.8071C126.277 60.9925 125.965 61.0852 125.506 61.0852H125.161V62H124.841V61.0852H124.498C124.255 61.0852 124.053 61.0621 123.894 61.0157C123.735 60.9679 123.598 60.8672 123.483 60.7137C123.37 60.5587 123.314 60.3769 123.314 60.1683C123.314 59.9075 123.407 59.683 123.592 59.4947C123.777 59.3064 124.113 59.2122 124.598 59.2122H124.841V58.8037ZM125.161 59.5208V60.7767H125.498L125.669 60.7789C125.892 60.7789 126.062 60.7209 126.18 60.605C126.299 60.4877 126.358 60.3407 126.358 60.1639C126.358 59.9684 126.288 59.8127 126.149 59.6968C126.01 59.5794 125.8 59.5208 125.519 59.5208H125.161ZM124.841 59.5208H124.483C124.221 59.5208 124.015 59.5765 123.866 59.6881C123.718 59.7982 123.644 59.9561 123.644 60.1618C123.644 60.3385 123.703 60.4855 123.82 60.6029C123.937 60.7202 124.113 60.7789 124.346 60.7789L124.507 60.7767H124.841V59.5208ZM127.086 58.8124H127.447L128.413 60.9831L129.298 58.8037H129.648L128.435 61.6762C128.322 61.9457 128.122 62.0804 127.833 62.0804C127.717 62.0804 127.608 62.0565 127.505 62.0087C127.402 61.9623 127.272 61.8515 127.114 61.6762L127.347 61.485C127.507 61.6429 127.615 61.7327 127.668 61.7545C127.722 61.7762 127.776 61.7871 127.831 61.7871C127.915 61.7871 127.988 61.7646 128.048 61.7197C128.111 61.6748 128.179 61.5625 128.253 61.3829L127.086 58.8124ZM130.06 62L130.515 58.8037H130.567L131.866 61.4264L133.152 58.8037H133.205L133.663 62H133.348L133.035 59.7142L131.905 62H131.825L130.68 59.6968L130.369 62H130.06ZM135.601 58.8037L137.092 62H136.749L136.247 60.9483H134.869L134.369 62H134.013L135.523 58.8037H135.601ZM135.562 59.4817L135.012 60.6398H136.105L135.562 59.4817ZM137.587 58.8037H138.224C138.589 58.8037 138.835 58.8197 138.963 58.8515C139.145 58.8964 139.294 58.9892 139.41 59.1297C139.526 59.2687 139.584 59.444 139.584 59.6555C139.584 59.8684 139.528 60.0444 139.415 60.1835C139.302 60.3211 139.146 60.4138 138.947 60.4616C138.803 60.4964 138.532 60.5138 138.135 60.5138H137.907V62H137.587V58.8037ZM137.907 59.1145V60.2009L138.448 60.2074C138.666 60.2074 138.827 60.1878 138.928 60.1487C139.029 60.1082 139.109 60.0437 139.167 59.9553C139.225 59.8655 139.254 59.7656 139.254 59.6555C139.254 59.5483 139.225 59.4505 139.167 59.3622C139.109 59.2723 139.032 59.2086 138.937 59.1709C138.842 59.1333 138.687 59.1145 138.472 59.1145H137.907ZM141.746 58.7233C142.23 58.7233 142.635 58.8849 142.961 59.2079C143.287 59.5309 143.45 59.9285 143.45 60.4008C143.45 60.8687 143.287 61.2656 142.961 61.5915C142.636 61.9174 142.24 62.0804 141.772 62.0804C141.298 62.0804 140.899 61.9182 140.573 61.5937C140.247 61.2692 140.084 60.8766 140.084 60.416C140.084 60.1089 140.158 59.8243 140.305 59.5621C140.455 59.2999 140.657 59.0949 140.914 58.9471C141.17 58.7979 141.448 58.7233 141.746 58.7233ZM141.761 59.0362C141.525 59.0362 141.301 59.0978 141.09 59.2209C140.878 59.3441 140.713 59.5099 140.594 59.7185C140.476 59.9271 140.416 60.1596 140.416 60.416C140.416 60.7955 140.547 61.1164 140.81 61.3786C141.073 61.6393 141.39 61.7697 141.761 61.7697C142.009 61.7697 142.238 61.7096 142.448 61.5893C142.659 61.4691 142.824 61.3047 142.941 61.0961C143.06 60.8875 143.119 60.6557 143.119 60.4008C143.119 60.1473 143.06 59.9184 142.941 59.7142C142.824 59.5085 142.658 59.3441 142.444 59.2209C142.229 59.0978 142.002 59.0362 141.761 59.0362ZM146.678 62H146.331L145.273 59.5295L144.195 62H143.847L145.238 58.8037H145.307L146.678 62ZM148.521 58.8037L150.012 62H149.668L149.166 60.9483H147.789L147.289 62H146.933L148.443 58.8037H148.521ZM148.482 59.4817L147.932 60.6398H149.025L148.482 59.4817Z" fill="white"/>
</g>
<defs>
<linearGradient id="paint0_linear_12_305" x1="36.7703" y1="40.0395" x2="27.2925" y2="40.0395" gradientUnits="userSpaceOnUse">
<stop stop-color="#51ADE5"/>
<stop offset="0.0215054" stop-color="#51ADE5"/>
<stop offset="1" stop-color="#2C3892"/>
</linearGradient>
<linearGradient id="paint1_linear_12_305" x1="36.0552" y1="58.5712" x2="36.0552" y2="27.7995" gradientUnits="userSpaceOnUse">
<stop stop-color="#EB1F38"/>
<stop offset="0.0215054" stop-color="#EB1F38"/>
<stop offset="0.543011" stop-color="#F14624"/>
<stop offset="0.998398" stop-color="#FBC008"/>
<stop offset="1" stop-color="#FBC008"/>
</linearGradient>
<linearGradient id="paint2_linear_12_305" x1="33.8511" y1="34.4293" x2="18.4825" y2="34.4293" gradientUnits="userSpaceOnUse">
<stop stop-color="#51ADE5"/>
<stop offset="0.0215054" stop-color="#51ADE5"/>
<stop offset="1" stop-color="#2C3892"/>
</linearGradient>
<linearGradient id="paint3_linear_12_305" x1="59.0999" y1="36.1093" x2="37.4676" y2="36.1093" gradientUnits="userSpaceOnUse">
<stop stop-color="#EB1F38"/>
<stop offset="0.0215054" stop-color="#EB1F38"/>
<stop offset="0.543011" stop-color="#F14624"/>
<stop offset="0.998398" stop-color="#FBC008"/>
<stop offset="1" stop-color="#FBC008"/>
</linearGradient>
<clipPath id="clip0_12_305">
<rect width="152" height="69" fill="white"/>
</clipPath>
</defs>
</svg>
