<?xml version="1.0" encoding="utf-8"?><svg viewBox="0 0 21 21" xmlns="http://www.w3.org/2000/svg" xmlns:xlink="http://www.w3.org/1999/xlink"><style>:root>svg{display:none}:root>svg:target{display:block}</style><svg viewBox="0 0 21 21" id="artix" xmlns="http://www.w3.org/2000/svg"><g clip-path="url(#aa)"><path d="M3.898 17.328a2.2 2.2 0 00-.626-.485 2.185 2.185 0 00-.9-.247h-.139A2.18 2.18 0 001 16.96a2.25 2.25 0 00-.812.956c-.06.137-.106.28-.138.427a2.054 2.054 0 000 .905c.032.147.079.29.138.428.177.386.458.714.812.95.363.244.793.372 1.232.366a2.266 2.266 0 00.958-.208l.065-.036a.671.671 0 01.105-.051l.097-.037.05.076a.512.512 0 00.448.255.528.528 0 00.367-.15.479.479 0 00.167-.36v-1.687a2.117 2.117 0 00-.16-.793 2.335 2.335 0 00-.43-.673zm-.572 1.93a1.16 1.16 0 01-.635.62 1.186 1.186 0 01-.463.09c-.153 0-.304-.032-.443-.094a1.31 1.31 0 01-.375-.25 1.26 1.26 0 01-.265-.37 1.101 1.101 0 01-.006-.91 1.23 1.23 0 01.637-.634 1.134 1.134 0 01.907 0 1.245 1.245 0 01.641.633 1.143 1.143 0 01.001.92v-.004zm4.25-2.651c-.293.01-.58.074-.85.186-.26.107-.498.26-.702.454a2.192 2.192 0 00-.469.672 1.92 1.92 0 00-.178.82v1.756a.487.487 0 00.311.474.48.48 0 00.19.032.526.526 0 00.494-.281.46.46 0 00.045-.185v-1.732a1.137 1.137 0 01.338-.84 1.165 1.165 0 01.83-.339.554.554 0 00.376-.154.469.469 0 00.15-.35.566.566 0 00-.336-.478.495.495 0 00-.2-.035zm5.254 3.216a.438.438 0 00-.118-.15.53.53 0 00-.374-.138h-.01a.554.554 0 00-.375.137.98.98 0 01-.35.216c-.152.05-.31.074-.47.07-.164 0-.326-.032-.476-.097a1.155 1.155 0 01-.38-.264 1.19 1.19 0 01-.291-.839v-1.132h1.175a.486.486 0 00.356-.161.506.506 0 00.016-.726.464.464 0 00-.372-.137H9.986v-.988a.43.43 0 00-.154-.346.612.612 0 00-.403-.138.593.593 0 00-.397.138.43.43 0 00-.154.346v3.136a2.16 2.16 0 00.69 1.63c.216.198.47.353.744.455.29.107.597.162.906.16a2.11 2.11 0 00.83-.163 2.35 2.35 0 00.71-.473.39.39 0 00.098-.156.53.53 0 00.027-.194.484.484 0 00-.054-.186zm7.178.297l-1.336-1.326 1.334-1.326a.498.498 0 00.139-.362.477.477 0 00-.139-.354.524.524 0 00-.363-.157h-.006a.47.47 0 00-.339.147l-1.364 1.328-1.336-1.315a.61.61 0 00-.365-.159.461.461 0 00-.364.156.621.621 0 00-.155.363.4.4 0 00.138.332l1.365 1.346-1.365 1.346a.46.46 0 00-.138.358c.004.134.06.26.156.353a.451.451 0 00.368.138.606.606 0 00.37-.138l1.33-1.32 1.335 1.296a.508.508 0 00.38.168.49.49 0 00.478-.307.474.474 0 00.035-.202.507.507 0 00-.158-.364zm-5.418-3.379a.575.575 0 00-.108-.073.46.46 0 00-.252-.07.46.46 0 00-.252.07.575.575 0 00-.107.073.432.432 0 00-.158.332v3.438a.46.46 0 00.167.355.499.499 0 00.345.124h.018c.126.004.25-.04.344-.124a.46.46 0 00.167-.355v-3.438a.43.43 0 00-.164-.332zm.027-1.448a.462.462 0 00-.35-.151.52.52 0 00-.363.138.468.468 0 00-.162.343.5.5 0 00.138.388.569.569 0 00.385.146.464.464 0 00.347-.152.507.507 0 000-.716l.005.004z"/></g><g clip-path="url(#ab)"><path d="M10.079 5.58c-1.512 0-2.887 1.371-2.887 3.064.002.622.188 1.229.53 1.734.735-.461 1.53-.787 2.362-.787.832 0 1.626.326 2.361.787a3.113 3.113 0 00.531-1.734c-.005-1.693-1.381-3.065-2.897-3.065z"/><path d="M10.077 0c-3.711 0-6.72 8.32-6.72 12.203 0 3.014 1.813-.223 4.359-1.825a3.087 3.087 0 01-.53-1.813c.017-.65.234-1.275.62-1.781-.124.31-.187.644-.186.98 0 .69.258 1.353.72 1.84a2.39 2.39 0 001.737.763 2.39 2.39 0 001.738-.762c.46-.488.72-1.15.72-1.84 0-.337-.063-.67-.186-.981a3.07 3.07 0 01.618 1.781c.017.65-.17 1.287-.528 1.813 2.547 1.601 4.358 4.839 4.358 1.825C16.797 8.321 13.788 0 10.077 0z"/></g><defs><clipPath id="aa"><path d="M0 15.12h20.16V21H0z"/></clipPath><clipPath id="ab"><path d="M3.36 0H16.8v13.44H3.36z"/></clipPath></defs></svg></svg>