<?xml version="1.0" encoding="utf-8"?><svg viewBox="0 0 19 19" xmlns="http://www.w3.org/2000/svg" xmlns:xlink="http://www.w3.org/1999/xlink"><style>:root>svg{display:none}:root>svg:target{display:block}</style><svg viewBox="0 0 19 19" id="viber" xmlns="http://www.w3.org/2000/svg"><circle cx="9.5" cy="9.5" r="9.5"/><path d="M12.47 5.01a14.717 14.717 0 00-5.5 0c-.801.172-1.81 1.14-1.985 1.9a10.863 10.863 0 000 4.496c.209.76 1.219 1.728 1.985 1.901.034 0 .07.035.07.07v2.178c0 .103.138.172.208.069l1.045-1.072s.835-.864.974-1.003c0 0 .035-.034.07-.034 1.045.034 2.124-.07 3.168-.242.801-.173 1.81-1.141 1.985-1.902a10.864 10.864 0 000-4.495c-.209-.726-1.219-1.694-2.02-1.867zm.035 6.5c-.174.345-.383.622-.73.795l-.314.103a4.404 4.404 0 01-.348-.103c-1.114-.45-2.159-1.072-2.994-1.971a8.315 8.315 0 01-1.15-1.729c-.139-.311-.278-.588-.382-.899-.105-.276.07-.553.243-.76.174-.208.383-.346.627-.45.174-.104.348-.035.487.104.279.345.558.691.766 1.072.14.242.105.518-.139.691-.07.035-.104.07-.174.138-.035.035-.104.07-.14.139a.334.334 0 00-.034.31c.278.796.8 1.418 1.602 1.764a.82.82 0 00.417.104c.244-.035.348-.311.523-.45.174-.138.383-.138.591-.034.175.104.349.242.558.38.174.138.348.242.522.38.104.07.14.242.07.415zm-1.462-2.594c-.07 0-.035 0 0 0-.14 0-.174-.069-.209-.173 0-.069 0-.173-.035-.242a.657.657 0 00-.243-.38l-.21-.104c-.104-.034-.173-.034-.278-.034-.104-.035-.139-.104-.139-.208 0-.069.104-.138.174-.138.557.035.975.346 1.045 1.003v.138c0 .07-.035.138-.105.138zm-.348-1.521a2.594 2.594 0 00-.557-.173c-.07 0-.174-.035-.244-.035-.104 0-.174-.069-.14-.172 0-.104.07-.173.175-.139.348.035.662.104.975.242.627.312.975.83 1.08 1.522v.449c-.036.138-.28.173-.314 0 0-.034-.035-.104-.035-.138 0-.311-.07-.623-.209-.9a1.868 1.868 0 00-.731-.656zm1.88 2.074c-.104 0-.174-.103-.174-.207 0-.207-.035-.415-.07-.622-.139-1.107-1.044-2.006-2.123-2.179-.175-.034-.349-.034-.488-.069-.104 0-.244 0-.278-.138-.035-.104.07-.207.174-.207h.07c1.427.034.069 0 0 0 1.462.034 2.68 1.002 2.924 2.454.035.242.07.484.07.761.07.104 0 .207-.105.207z"/></svg><svg viewBox="0 0 19 19" id="watsapp" xmlns="http://www.w3.org/2000/svg"><circle cx="9.5" cy="9.5" r="9.5"/><path d="M13.265 5.73a4.953 4.953 0 00-3.51-1.455c-2.746 0-4.97 2.217-4.97 4.953 0 .866.243 1.732.66 2.459L4.75 14.25l2.641-.693c.73.381 1.53.589 2.364.589 2.745 0 4.97-2.217 4.97-4.953-.035-1.281-.521-2.528-1.46-3.463zm-1.112 5.264c-.104.277-.59.554-.834.589a1.95 1.95 0 01-.765-.035c-.174-.069-.417-.138-.695-.277-1.251-.52-2.05-1.766-2.12-1.87-.07-.07-.521-.658-.521-1.282 0-.623.312-.9.417-1.039.104-.138.243-.138.347-.138h.244c.07 0 .173-.035.278.208.104.242.347.866.382.9a.22.22 0 010 .208.724.724 0 01-.14.208c-.069.07-.138.173-.173.208-.07.069-.139.138-.07.242.07.139.313.52.696.866.486.416.869.554 1.008.623.139.07.208.035.278-.034.07-.07.313-.347.382-.485.07-.139.174-.104.278-.07.104.035.73.347.834.416.14.07.209.104.244.139.034.104.034.346-.07.623z"/></svg></svg>