<svg width="19" height="19" viewBox="0 0 19 19" fill="none" xmlns="http://www.w3.org/2000/svg">
<circle id="tt" cx="9.5" cy="9.5" r="9.5" fill="white"/>
<path d="M4.44161 9.67788L6.6257 10.4923L7.47712 13.2317C7.51414 13.4167 7.73626 13.4538 7.88433 13.3427L9.10593 12.3432C9.21699 12.2322 9.40209 12.2322 9.55016 12.3432L11.7342 13.935C11.8823 14.0461 12.1044 13.972 12.1415 13.7869L13.7703 6.01306C13.8073 5.82796 13.6222 5.64287 13.4371 5.71691L4.44161 9.19665C4.2195 9.27068 4.2195 9.60385 4.44161 9.67788ZM7.36607 10.0851L11.6602 7.45678C11.7342 7.41976 11.8083 7.53081 11.7342 7.56783L8.21749 10.8625C8.10644 10.9735 7.99538 11.1216 7.99538 11.3067L7.88433 12.1951C7.88433 12.3062 7.69923 12.3432 7.66222 12.1951L7.21799 10.5663C7.10694 10.3812 7.18098 10.1591 7.36607 10.0851Z" fill="#243469"/>
</svg>
