<svg width="17" height="17" viewBox="0 0 17 17" fill="none" xmlns="http://www.w3.org/2000/svg">
<path d="M13.9976 3.04687C12.5159 1.57031 10.5403 0.75 8.45495 0.75C4.11958 0.75 0.607383 4.25 0.607383 8.57031C0.607383 9.9375 0.99153 11.3047 1.65007 12.4531L0.552505 16.5L4.72324 15.4062C5.87568 16.0078 7.13787 16.3359 8.45495 16.3359C12.7903 16.3359 16.3025 12.8359 16.3025 8.51563C16.2476 6.49219 15.4793 4.52344 13.9976 3.04687ZM12.2415 11.3594C12.0769 11.7969 11.3086 12.2344 10.9245 12.2891C10.5952 12.3437 10.1562 12.3438 9.71714 12.2344C9.44275 12.125 9.05861 12.0156 8.61958 11.7969C6.64397 10.9766 5.38178 9.00781 5.27202 8.84375C5.16226 8.73437 4.44885 7.80469 4.44885 6.82031C4.44885 5.83594 4.94275 5.39844 5.10738 5.17969C5.27202 4.96094 5.49153 4.96094 5.65616 4.96094C5.76592 4.96094 5.93055 4.96094 6.04031 4.96094C6.15007 4.96094 6.3147 4.90625 6.47934 5.28906C6.64397 5.67187 7.02812 6.65625 7.08299 6.71094C7.13787 6.82031 7.13787 6.92969 7.08299 7.03906C7.02812 7.14844 6.97324 7.25781 6.86348 7.36719C6.75372 7.47656 6.64397 7.64062 6.58909 7.69531C6.47933 7.80469 6.36958 7.91406 6.47934 8.07812C6.58909 8.29687 6.97324 8.89844 7.5769 9.44531C8.34519 10.1016 8.94885 10.3203 9.16836 10.4297C9.38787 10.5391 9.49763 10.4844 9.60738 10.375C9.71714 10.2656 10.1013 9.82813 10.211 9.60938C10.3208 9.39063 10.4854 9.44531 10.6501 9.5C10.8147 9.55469 11.8025 10.0469 11.9671 10.1563C12.1867 10.2656 12.2964 10.3203 12.3513 10.375C12.4062 10.5391 12.4062 10.9219 12.2415 11.3594Z" fill="#243469"/>
</svg>
